<svg width="242" height="242" viewBox="0 0 242 242" fill="none" xmlns="http://www.w3.org/2000/svg">
<circle opacity="0.6" cx="121" cy="121" r="121" fill="#FFD9D7"/>
<path d="M107.259 152.444L107.261 90.2128C107.261 82.556 113.49 76.3273 121.141 76.3294C128.798 76.3294 135.025 82.5568 135.026 90.2148L135.03 98.2441L135.028 152.443L135.026 158.969C135.027 164.133 130.827 168.333 125.66 168.336C120.495 168.334 116.293 164.132 116.292 158.968L116.29 141.738L116.29 98.2452L116.29 97.243C116.292 94.6607 118.391 92.5578 120.976 92.5578C123.558 92.5557 125.659 94.6566 125.659 97.241L125.658 141.737C125.657 142.661 126.406 143.41 127.331 143.41C128.257 143.409 129.002 142.664 129.004 141.737L129.003 97.241C129.005 92.8109 125.402 89.2085 120.974 89.2117C116.548 89.2097 112.948 92.813 112.944 97.241L112.944 98.2432L112.944 141.736L112.946 158.966C112.946 165.977 118.646 171.682 125.66 171.68C132.668 171.68 138.37 165.978 138.374 158.966L138.372 152.444L138.372 98.2444L138.37 90.2171C138.373 80.7167 130.642 72.9866 121.14 72.9866C111.64 72.9833 103.912 80.7135 103.911 90.2148L103.913 152.443C103.911 153.367 104.659 154.115 105.585 154.114C106.512 154.114 107.257 153.369 107.259 152.444Z" fill="#FF4438"/>
</svg>
