<svg width="30" height="25" viewBox="0 0 30 25" fill="none" xmlns="http://www.w3.org/2000/svg">
<path d="M1.63672 6.26134L12.4923 13.8603C13.3714 14.4756 13.8109 14.7833 14.289 14.9025C14.7113 15.0077 15.153 15.0077 15.5753 14.9025C16.0534 14.7833 16.4929 14.4756 17.372 13.8603L28.2276 6.26134M8.01854 23.5454H21.8458C24.0797 23.5454 25.1966 23.5454 26.0498 23.1107C26.8003 22.7283 27.4105 22.1181 27.7929 21.3676C28.2276 20.5144 28.2276 19.3975 28.2276 17.1636V8.65452C28.2276 6.42068 28.2276 5.30375 27.7929 4.45054C27.4105 3.70003 26.8003 3.08984 26.0498 2.70744C25.1966 2.27271 24.0797 2.27271 21.8458 2.27271H8.01854C5.78469 2.27271 4.66777 2.27271 3.81455 2.70744C3.06404 3.08984 2.45386 3.70003 2.07145 4.45054C1.63672 5.30375 1.63672 6.42068 1.63672 8.65452V17.1636C1.63672 19.3975 1.63672 20.5144 2.07145 21.3676C2.45386 22.1181 3.06404 22.7283 3.81455 23.1107C4.66777 23.5454 5.78469 23.5454 8.01854 23.5454Z" stroke="white" stroke-width="2.65909" stroke-linecap="round" stroke-linejoin="round"/>
</svg>
