<svg width="257" height="257" viewBox="0 0 257 257" fill="none" xmlns="http://www.w3.org/2000/svg">
<circle opacity="0.2" cx="128.5" cy="128.5" r="128.5" fill="#FFD9D7"/>
<path d="M137.656 73.9534L177.178 99.8087C178.574 100.722 179.273 101.179 179.779 101.788C180.226 102.328 180.563 102.952 180.768 103.624C181 104.383 181 105.221 181 106.897V145.637C181 154.515 181 158.954 179.283 162.345C177.773 165.327 175.364 167.753 172.4 169.272C169.031 171 164.621 171 155.8 171H101.2C92.3792 171 87.9688 171 84.5996 169.272C81.6361 167.753 79.2267 165.327 77.7166 162.345C76 158.954 76 154.515 76 145.637V106.897C76 105.221 76 104.383 76.2319 103.624C76.4372 102.952 76.7736 102.328 77.2214 101.788C77.7273 101.179 78.4256 100.722 79.8221 99.8087L119.344 73.9534M137.656 73.9534C134.342 71.7854 132.685 70.7014 130.899 70.2796C129.321 69.9068 127.679 69.9068 126.101 70.2796C124.315 70.7014 122.658 71.7854 119.344 73.9534M137.656 73.9534L170.165 95.2207C173.776 97.5832 175.582 98.7644 176.207 100.262C176.753 101.571 176.753 103.047 176.207 104.356C175.582 105.854 173.776 107.035 170.165 109.398L137.656 130.665C134.342 132.833 132.685 133.917 130.899 134.339C129.321 134.712 127.679 134.712 126.101 134.339C124.315 133.917 122.658 132.833 119.344 130.665L86.8353 109.398C83.2241 107.035 81.4185 105.854 80.7931 104.356C80.2466 103.047 80.2466 101.571 80.7931 100.262C81.4185 98.7644 83.2241 97.5832 86.8353 95.2207L119.344 73.9534M178.375 160.432L143.5 128.729M113.5 128.729L78.625 160.432" stroke="#FF4438" stroke-width="4" stroke-linecap="round" stroke-linejoin="round"/>
</svg>
