<svg width="346" height="261" viewBox="0 0 346 261" fill="none" xmlns="http://www.w3.org/2000/svg">
<rect width="346" height="261" fill="#121B2C"/>
<rect x="110.489" y="107.489" width="126.022" height="45.7556" stroke="white" stroke-width="2.97778"/>
<path d="M143.413 126.291L140.821 135.155H138.405L136.789 128.963L135.173 135.155H132.741L130.133 126.291H132.405L133.973 133.043L135.669 126.291H138.037L139.701 133.027L141.269 126.291H143.413ZM144.049 130.691C144.049 129.795 144.225 129.001 144.577 128.307C144.94 127.614 145.425 127.081 146.033 126.707C146.652 126.334 147.34 126.147 148.097 126.147C148.759 126.147 149.335 126.281 149.825 126.547C150.327 126.814 150.727 127.15 151.025 127.555V126.291H153.281V135.155H151.025V133.859C150.737 134.275 150.337 134.622 149.825 134.899C149.324 135.166 148.743 135.299 148.081 135.299C147.335 135.299 146.652 135.107 146.033 134.723C145.425 134.339 144.94 133.801 144.577 133.107C144.225 132.403 144.049 131.598 144.049 130.691ZM151.025 130.723C151.025 130.179 150.919 129.715 150.705 129.331C150.492 128.937 150.204 128.638 149.841 128.435C149.479 128.222 149.089 128.115 148.673 128.115C148.257 128.115 147.873 128.217 147.521 128.419C147.169 128.622 146.881 128.921 146.657 129.315C146.444 129.699 146.337 130.158 146.337 130.691C146.337 131.225 146.444 131.694 146.657 132.099C146.881 132.494 147.169 132.798 147.521 133.011C147.884 133.225 148.268 133.331 148.673 133.331C149.089 133.331 149.479 133.23 149.841 133.027C150.204 132.814 150.492 132.515 150.705 132.131C150.919 131.737 151.025 131.267 151.025 130.723ZM158.077 128.131V132.419C158.077 132.718 158.147 132.937 158.285 133.075C158.435 133.203 158.68 133.267 159.021 133.267H160.061V135.155H158.653C156.765 135.155 155.821 134.238 155.821 132.403V128.131H154.765V126.291H155.821V124.099H158.077V126.291H160.061V128.131H158.077ZM161.096 130.723C161.096 129.806 161.283 129.006 161.656 128.323C162.03 127.63 162.547 127.097 163.208 126.723C163.87 126.339 164.627 126.147 165.48 126.147C166.579 126.147 167.486 126.425 168.2 126.979C168.926 127.523 169.411 128.291 169.656 129.283H167.24C167.112 128.899 166.894 128.601 166.584 128.387C166.286 128.163 165.912 128.051 165.464 128.051C164.824 128.051 164.318 128.286 163.944 128.755C163.571 129.214 163.384 129.87 163.384 130.723C163.384 131.566 163.571 132.222 163.944 132.691C164.318 133.15 164.824 133.379 165.464 133.379C166.371 133.379 166.963 132.974 167.24 132.163H169.656C169.411 133.123 168.926 133.886 168.2 134.451C167.475 135.017 166.568 135.299 165.48 135.299C164.627 135.299 163.87 135.113 163.208 134.739C162.547 134.355 162.03 133.822 161.656 133.139C161.283 132.446 161.096 131.641 161.096 130.723ZM176.289 126.163C176.961 126.163 177.559 126.313 178.081 126.611C178.604 126.899 179.009 127.331 179.297 127.907C179.596 128.473 179.745 129.155 179.745 129.955V135.155H177.505V130.259C177.505 129.555 177.329 129.017 176.977 128.643C176.625 128.259 176.145 128.067 175.537 128.067C174.919 128.067 174.428 128.259 174.065 128.643C173.713 129.017 173.537 129.555 173.537 130.259V135.155H171.297V123.315H173.537V127.395C173.825 127.011 174.209 126.713 174.689 126.499C175.169 126.275 175.703 126.163 176.289 126.163Z" fill="white"/>
<path d="M203.6 138.966V121.289L213.699 129.823L203.6 138.966Z" fill="white"/>
</svg>
