<svg width="346" height="194" viewBox="0 0 346 194" fill="none" xmlns="http://www.w3.org/2000/svg">
<rect x="1" y="1" width="344" height="192" stroke="#F6F6F7" stroke-width="2"/>
<path d="M39 120.333H81" stroke="#FF4438" stroke-width="2" stroke-linecap="square"/>
<path d="M45.0666 88.5527H41.3333C40.05 88.5527 39 89.6027 39 90.8861V110.999C39 112.283 40.05 113.333 41.3333 113.333H45.0666C46.3499 113.333 47.3999 112.283 47.3999 110.999V90.8861C47.3999 89.6027 46.3499 88.5527 45.0666 88.5527Z" stroke="#FF4438" stroke-width="2" stroke-linecap="square"/>
<path d="M61.8693 81.1099H58.1361C56.8527 81.1099 55.8027 82.1599 55.8027 83.4432V111C55.8027 112.283 56.8527 113.333 58.1361 113.333H61.8693C63.1527 113.333 64.2027 112.283 64.2027 111V83.4432C64.2027 82.1599 63.1527 81.1099 61.8693 81.1099Z" stroke="#FF4438" stroke-width="2" stroke-linecap="square"/>
<path d="M78.6662 73.6671H74.9329C73.6496 73.6671 72.5996 74.7171 72.5996 76.0004V111C72.5996 112.284 73.6496 113.334 74.9329 113.334H78.6662C79.9496 113.334 80.9996 112.284 80.9996 111V76.0004C80.9996 74.7171 79.9496 73.6671 78.6662 73.6671Z" stroke="#FF4438" stroke-width="2" stroke-linecap="square"/>
<path d="M104.774 83.218C104.774 81.994 105.05 80.896 105.602 79.924C106.154 78.94 106.904 78.172 107.852 77.62C108.812 77.068 109.874 76.792 111.038 76.792C112.406 76.792 113.6 77.122 114.62 77.782C115.64 78.442 116.384 79.378 116.852 80.59H114.89C114.542 79.834 114.038 79.252 113.378 78.844C112.73 78.436 111.95 78.232 111.038 78.232C110.162 78.232 109.376 78.436 108.68 78.844C107.984 79.252 107.438 79.834 107.042 80.59C106.646 81.334 106.448 82.21 106.448 83.218C106.448 84.214 106.646 85.09 107.042 85.846C107.438 86.59 107.984 87.166 108.68 87.574C109.376 87.982 110.162 88.186 111.038 88.186C111.95 88.186 112.73 87.988 113.378 87.592C114.038 87.184 114.542 86.602 114.89 85.846H116.852C116.384 87.046 115.64 87.976 114.62 88.636C113.6 89.284 112.406 89.608 111.038 89.608C109.874 89.608 108.812 89.338 107.852 88.798C106.904 88.246 106.154 87.484 105.602 86.512C105.05 85.54 104.774 84.442 104.774 83.218ZM123.592 89.662C122.668 89.662 121.828 89.452 121.072 89.032C120.328 88.612 119.74 88.018 119.308 87.25C118.888 86.47 118.678 85.57 118.678 84.55C118.678 83.542 118.894 82.654 119.326 81.886C119.77 81.106 120.37 80.512 121.126 80.104C121.882 79.684 122.728 79.474 123.664 79.474C124.6 79.474 125.446 79.684 126.202 80.104C126.958 80.512 127.552 81.1 127.984 81.868C128.428 82.636 128.65 83.53 128.65 84.55C128.65 85.57 128.422 86.47 127.966 87.25C127.522 88.018 126.916 88.612 126.148 89.032C125.38 89.452 124.528 89.662 123.592 89.662ZM123.592 88.222C124.18 88.222 124.732 88.084 125.248 87.808C125.764 87.532 126.178 87.118 126.49 86.566C126.814 86.014 126.976 85.342 126.976 84.55C126.976 83.758 126.82 83.086 126.508 82.534C126.196 81.982 125.788 81.574 125.284 81.31C124.78 81.034 124.234 80.896 123.646 80.896C123.046 80.896 122.494 81.034 121.99 81.31C121.498 81.574 121.102 81.982 120.802 82.534C120.502 83.086 120.352 83.758 120.352 84.55C120.352 85.354 120.496 86.032 120.784 86.584C121.084 87.136 121.48 87.55 121.972 87.826C122.464 88.09 123.004 88.222 123.592 88.222ZM142.666 79.456C143.434 79.456 144.118 79.618 144.718 79.942C145.318 80.254 145.792 80.728 146.14 81.364C146.488 82 146.662 82.774 146.662 83.686V89.5H145.042V83.92C145.042 82.936 144.796 82.186 144.304 81.67C143.824 81.142 143.17 80.878 142.342 80.878C141.49 80.878 140.812 81.154 140.308 81.706C139.804 82.246 139.552 83.032 139.552 84.064V89.5H137.932V83.92C137.932 82.936 137.686 82.186 137.194 81.67C136.714 81.142 136.06 80.878 135.232 80.878C134.38 80.878 133.702 81.154 133.198 81.706C132.694 82.246 132.442 83.032 132.442 84.064V89.5H130.804V79.636H132.442V81.058C132.766 80.542 133.198 80.146 133.738 79.87C134.29 79.594 134.896 79.456 135.556 79.456C136.384 79.456 137.116 79.642 137.752 80.014C138.388 80.386 138.862 80.932 139.174 81.652C139.45 80.956 139.906 80.416 140.542 80.032C141.178 79.648 141.886 79.456 142.666 79.456ZM150.987 81.454C151.311 80.89 151.791 80.422 152.427 80.05C153.075 79.666 153.825 79.474 154.677 79.474C155.553 79.474 156.345 79.684 157.053 80.104C157.773 80.524 158.337 81.118 158.745 81.886C159.153 82.642 159.357 83.524 159.357 84.532C159.357 85.528 159.153 86.416 158.745 87.196C158.337 87.976 157.773 88.582 157.053 89.014C156.345 89.446 155.553 89.662 154.677 89.662C153.837 89.662 153.093 89.476 152.445 89.104C151.809 88.72 151.323 88.246 150.987 87.682V94.18H149.349V79.636H150.987V81.454ZM157.683 84.532C157.683 83.788 157.533 83.14 157.233 82.588C156.933 82.036 156.525 81.616 156.009 81.328C155.505 81.04 154.947 80.896 154.335 80.896C153.735 80.896 153.177 81.046 152.661 81.346C152.157 81.634 151.749 82.06 151.437 82.624C151.137 83.176 150.987 83.818 150.987 84.55C150.987 85.294 151.137 85.948 151.437 86.512C151.749 87.064 152.157 87.49 152.661 87.79C153.177 88.078 153.735 88.222 154.335 88.222C154.947 88.222 155.505 88.078 156.009 87.79C156.525 87.49 156.933 87.064 157.233 86.512C157.533 85.948 157.683 85.288 157.683 84.532ZM160.901 84.532C160.901 83.524 161.105 82.642 161.513 81.886C161.921 81.118 162.479 80.524 163.187 80.104C163.907 79.684 164.705 79.474 165.581 79.474C166.445 79.474 167.195 79.66 167.831 80.032C168.467 80.404 168.941 80.872 169.253 81.436V79.636H170.909V89.5H169.253V87.664C168.929 88.24 168.443 88.72 167.795 89.104C167.159 89.476 166.415 89.662 165.563 89.662C164.687 89.662 163.895 89.446 163.187 89.014C162.479 88.582 161.921 87.976 161.513 87.196C161.105 86.416 160.901 85.528 160.901 84.532ZM169.253 84.55C169.253 83.806 169.103 83.158 168.803 82.606C168.503 82.054 168.095 81.634 167.579 81.346C167.075 81.046 166.517 80.896 165.905 80.896C165.293 80.896 164.735 81.04 164.231 81.328C163.727 81.616 163.325 82.036 163.025 82.588C162.725 83.14 162.575 83.788 162.575 84.532C162.575 85.288 162.725 85.948 163.025 86.512C163.325 87.064 163.727 87.49 164.231 87.79C164.735 88.078 165.293 88.222 165.905 88.222C166.517 88.222 167.075 88.078 167.579 87.79C168.095 87.49 168.503 87.064 168.803 86.512C169.103 85.948 169.253 85.294 169.253 84.55ZM178.483 79.456C179.683 79.456 180.655 79.822 181.399 80.554C182.143 81.274 182.515 82.318 182.515 83.686V89.5H180.895V83.92C180.895 82.936 180.649 82.186 180.157 81.67C179.665 81.142 178.993 80.878 178.141 80.878C177.277 80.878 176.587 81.148 176.071 81.688C175.567 82.228 175.315 83.014 175.315 84.046V89.5H173.677V79.636H175.315V81.04C175.639 80.536 176.077 80.146 176.629 79.87C177.193 79.594 177.811 79.456 178.483 79.456ZM193.687 79.636L187.747 94.144H186.055L187.999 89.392L184.021 79.636H185.839L188.935 87.628L191.995 79.636H193.687ZM112.478 104.954V106.286H107.024V110.516H111.452V111.848H107.024V117.5H105.386V104.954H112.478ZM115.302 106.034C114.99 106.034 114.726 105.926 114.51 105.71C114.294 105.494 114.186 105.23 114.186 104.918C114.186 104.606 114.294 104.342 114.51 104.126C114.726 103.91 114.99 103.802 115.302 103.802C115.602 103.802 115.854 103.91 116.058 104.126C116.274 104.342 116.382 104.606 116.382 104.918C116.382 105.23 116.274 105.494 116.058 105.71C115.854 105.926 115.602 106.034 115.302 106.034ZM116.094 107.636V117.5H114.456V107.636H116.094ZM123.692 107.456C124.892 107.456 125.864 107.822 126.608 108.554C127.352 109.274 127.724 110.318 127.724 111.686V117.5H126.104V111.92C126.104 110.936 125.858 110.186 125.366 109.67C124.874 109.142 124.202 108.878 123.35 108.878C122.486 108.878 121.796 109.148 121.28 109.688C120.776 110.228 120.524 111.014 120.524 112.046V117.5H118.886V107.636H120.524V109.04C120.848 108.536 121.286 108.146 121.838 107.87C122.402 107.594 123.02 107.456 123.692 107.456ZM129.788 112.532C129.788 111.524 129.992 110.642 130.4 109.886C130.808 109.118 131.366 108.524 132.074 108.104C132.794 107.684 133.592 107.474 134.468 107.474C135.332 107.474 136.082 107.66 136.718 108.032C137.354 108.404 137.828 108.872 138.14 109.436V107.636H139.796V117.5H138.14V115.664C137.816 116.24 137.33 116.72 136.682 117.104C136.046 117.476 135.302 117.662 134.45 117.662C133.574 117.662 132.782 117.446 132.074 117.014C131.366 116.582 130.808 115.976 130.4 115.196C129.992 114.416 129.788 113.528 129.788 112.532ZM138.14 112.55C138.14 111.806 137.99 111.158 137.69 110.606C137.39 110.054 136.982 109.634 136.466 109.346C135.962 109.046 135.404 108.896 134.792 108.896C134.18 108.896 133.622 109.04 133.118 109.328C132.614 109.616 132.212 110.036 131.912 110.588C131.612 111.14 131.462 111.788 131.462 112.532C131.462 113.288 131.612 113.948 131.912 114.512C132.212 115.064 132.614 115.49 133.118 115.79C133.622 116.078 134.18 116.222 134.792 116.222C135.404 116.222 135.962 116.078 136.466 115.79C136.982 115.49 137.39 115.064 137.69 114.512C137.99 113.948 138.14 113.294 138.14 112.55ZM147.37 107.456C148.57 107.456 149.542 107.822 150.286 108.554C151.03 109.274 151.402 110.318 151.402 111.686V117.5H149.782V111.92C149.782 110.936 149.536 110.186 149.044 109.67C148.552 109.142 147.88 108.878 147.028 108.878C146.164 108.878 145.474 109.148 144.958 109.688C144.454 110.228 144.202 111.014 144.202 112.046V117.5H142.564V107.636H144.202V109.04C144.526 108.536 144.964 108.146 145.516 107.87C146.08 107.594 146.698 107.456 147.37 107.456ZM153.465 112.55C153.465 111.53 153.669 110.642 154.077 109.886C154.485 109.118 155.049 108.524 155.769 108.104C156.501 107.684 157.335 107.474 158.271 107.474C159.483 107.474 160.479 107.768 161.259 108.356C162.051 108.944 162.573 109.76 162.825 110.804H161.061C160.893 110.204 160.563 109.73 160.071 109.382C159.591 109.034 158.991 108.86 158.271 108.86C157.335 108.86 156.579 109.184 156.003 109.832C155.427 110.468 155.139 111.374 155.139 112.55C155.139 113.738 155.427 114.656 156.003 115.304C156.579 115.952 157.335 116.276 158.271 116.276C158.991 116.276 159.591 116.108 160.071 115.772C160.551 115.436 160.881 114.956 161.061 114.332H162.825C162.561 115.34 162.033 116.15 161.241 116.762C160.449 117.362 159.459 117.662 158.271 117.662C157.335 117.662 156.501 117.452 155.769 117.032C155.049 116.612 154.485 116.018 154.077 115.25C153.669 114.482 153.465 113.582 153.465 112.55ZM165.857 106.034C165.545 106.034 165.281 105.926 165.065 105.71C164.849 105.494 164.741 105.23 164.741 104.918C164.741 104.606 164.849 104.342 165.065 104.126C165.281 103.91 165.545 103.802 165.857 103.802C166.157 103.802 166.409 103.91 166.613 104.126C166.829 104.342 166.937 104.606 166.937 104.918C166.937 105.23 166.829 105.494 166.613 105.71C166.409 105.926 166.157 106.034 165.857 106.034ZM166.649 107.636V117.5H165.011V107.636H166.649ZM168.829 112.532C168.829 111.524 169.033 110.642 169.441 109.886C169.849 109.118 170.407 108.524 171.115 108.104C171.835 107.684 172.633 107.474 173.509 107.474C174.373 107.474 175.123 107.66 175.759 108.032C176.395 108.404 176.869 108.872 177.181 109.436V107.636H178.837V117.5H177.181V115.664C176.857 116.24 176.371 116.72 175.723 117.104C175.087 117.476 174.343 117.662 173.491 117.662C172.615 117.662 171.823 117.446 171.115 117.014C170.407 116.582 169.849 115.976 169.441 115.196C169.033 114.416 168.829 113.528 168.829 112.532ZM177.181 112.55C177.181 111.806 177.031 111.158 176.731 110.606C176.431 110.054 176.023 109.634 175.507 109.346C175.003 109.046 174.445 108.896 173.833 108.896C173.221 108.896 172.663 109.04 172.159 109.328C171.655 109.616 171.253 110.036 170.953 110.588C170.653 111.14 170.503 111.788 170.503 112.532C170.503 113.288 170.653 113.948 170.953 114.512C171.253 115.064 171.655 115.49 172.159 115.79C172.663 116.078 173.221 116.222 173.833 116.222C174.445 116.222 175.003 116.078 175.507 115.79C176.023 115.49 176.431 115.064 176.731 114.512C177.031 113.948 177.181 113.294 177.181 112.55ZM183.243 104.18V117.5H181.605V104.18H183.243ZM194.739 104.954C196.107 104.954 197.289 105.212 198.285 105.728C199.293 106.232 200.061 106.958 200.589 107.906C201.129 108.854 201.399 109.97 201.399 111.254C201.399 112.538 201.129 113.654 200.589 114.602C200.061 115.538 199.293 116.258 198.285 116.762C197.289 117.254 196.107 117.5 194.739 117.5H190.833V104.954H194.739ZM194.739 116.15C196.359 116.15 197.595 115.724 198.447 114.872C199.299 114.008 199.725 112.802 199.725 111.254C199.725 109.694 199.293 108.476 198.429 107.6C197.577 106.724 196.347 106.286 194.739 106.286H192.471V116.15H194.739ZM202.948 112.532C202.948 111.524 203.152 110.642 203.56 109.886C203.968 109.118 204.526 108.524 205.234 108.104C205.954 107.684 206.752 107.474 207.628 107.474C208.492 107.474 209.242 107.66 209.878 108.032C210.514 108.404 210.988 108.872 211.3 109.436V107.636H212.956V117.5H211.3V115.664C210.976 116.24 210.49 116.72 209.842 117.104C209.206 117.476 208.462 117.662 207.61 117.662C206.734 117.662 205.942 117.446 205.234 117.014C204.526 116.582 203.968 115.976 203.56 115.196C203.152 114.416 202.948 113.528 202.948 112.532ZM211.3 112.55C211.3 111.806 211.15 111.158 210.85 110.606C210.55 110.054 210.142 109.634 209.626 109.346C209.122 109.046 208.564 108.896 207.952 108.896C207.34 108.896 206.782 109.04 206.278 109.328C205.774 109.616 205.372 110.036 205.072 110.588C204.772 111.14 204.622 111.788 204.622 112.532C204.622 113.288 204.772 113.948 205.072 114.512C205.372 115.064 205.774 115.49 206.278 115.79C206.782 116.078 207.34 116.222 207.952 116.222C208.564 116.222 209.122 116.078 209.626 115.79C210.142 115.49 210.55 115.064 210.85 114.512C211.15 113.948 211.3 113.294 211.3 112.55ZM217.722 108.986V114.8C217.722 115.28 217.824 115.622 218.028 115.826C218.232 116.018 218.586 116.114 219.09 116.114H220.296V117.5H218.82C217.908 117.5 217.224 117.29 216.768 116.87C216.312 116.45 216.084 115.76 216.084 114.8V108.986H214.806V107.636H216.084V105.152H217.722V107.636H220.296V108.986H217.722ZM221.669 112.532C221.669 111.524 221.873 110.642 222.281 109.886C222.689 109.118 223.247 108.524 223.955 108.104C224.675 107.684 225.473 107.474 226.349 107.474C227.213 107.474 227.963 107.66 228.599 108.032C229.235 108.404 229.709 108.872 230.021 109.436V107.636H231.677V117.5H230.021V115.664C229.697 116.24 229.211 116.72 228.563 117.104C227.927 117.476 227.183 117.662 226.331 117.662C225.455 117.662 224.663 117.446 223.955 117.014C223.247 116.582 222.689 115.976 222.281 115.196C221.873 114.416 221.669 113.528 221.669 112.532ZM230.021 112.55C230.021 111.806 229.871 111.158 229.571 110.606C229.271 110.054 228.863 109.634 228.347 109.346C227.843 109.046 227.285 108.896 226.673 108.896C226.061 108.896 225.503 109.04 224.999 109.328C224.495 109.616 224.093 110.036 223.793 110.588C223.493 111.14 223.343 111.788 223.343 112.532C223.343 113.288 223.493 113.948 223.793 114.512C224.093 115.064 224.495 115.49 224.999 115.79C225.503 116.078 226.061 116.222 226.673 116.222C227.285 116.222 227.843 116.078 228.347 115.79C228.863 115.49 229.271 115.064 229.571 114.512C229.871 113.948 230.021 113.294 230.021 112.55Z" fill="#121B2C"/>
<path d="M299.334 97H314.001M314.001 97L308.501 91.5M314.001 97L308.501 102.5" stroke="#121B2C" stroke-width="2" stroke-linecap="round" stroke-linejoin="round"/>
</svg>
