<svg width="346" height="194" viewBox="0 0 346 194" fill="none" xmlns="http://www.w3.org/2000/svg">
<rect x="1" y="1" width="344" height="192" stroke="#F6F6F7" stroke-width="2"/>
<path d="M34.2461 119.499H83.7461" stroke="#FF4438" stroke-width="2" stroke-miterlimit="10" stroke-linecap="round" stroke-linejoin="round"/>
<path d="M76.5078 119.524V109.488" stroke="#FF4438" stroke-width="2" stroke-miterlimit="10" stroke-linecap="round" stroke-linejoin="round"/>
<path d="M76.5477 94.5023C73.8027 94.5023 71.5977 96.7073 71.5977 99.4523V104.56C71.5977 107.305 73.8027 109.51 76.5477 109.51C79.2927 109.51 81.4977 107.305 81.4977 104.56V99.4523C81.4977 96.7073 79.2927 94.5023 76.5477 94.5023Z" stroke="#FF4438" stroke-width="2" stroke-miterlimit="10" stroke-linecap="round" stroke-linejoin="round"/>
<path d="M36.7227 119.5V83.5673C36.7227 79.0448 38.9728 76.7723 43.4503 76.7723H57.4677C61.9452 76.7723 64.1727 79.0448 64.1727 83.5673V119.5" stroke="#FF4438" stroke-width="2" stroke-miterlimit="10" stroke-linecap="round" stroke-linejoin="round"/>
<path d="M45.0508 88.5625H56.1883" stroke="#FF4438" stroke-width="2" stroke-miterlimit="10" stroke-linecap="round" stroke-linejoin="round"/>
<path d="M45.0508 97H56.1883" stroke="#FF4438" stroke-width="2" stroke-miterlimit="10" stroke-linecap="round" stroke-linejoin="round"/>
<path d="M50.5625 119.499V111.061" stroke="#FF4438" stroke-width="2" stroke-miterlimit="10" stroke-linecap="round" stroke-linejoin="round"/>
<path d="M102.774 83.218C102.774 81.994 103.05 80.896 103.602 79.924C104.154 78.94 104.904 78.172 105.852 77.62C106.812 77.068 107.874 76.792 109.038 76.792C110.406 76.792 111.6 77.122 112.62 77.782C113.64 78.442 114.384 79.378 114.852 80.59H112.89C112.542 79.834 112.038 79.252 111.378 78.844C110.73 78.436 109.95 78.232 109.038 78.232C108.162 78.232 107.376 78.436 106.68 78.844C105.984 79.252 105.438 79.834 105.042 80.59C104.646 81.334 104.448 82.21 104.448 83.218C104.448 84.214 104.646 85.09 105.042 85.846C105.438 86.59 105.984 87.166 106.68 87.574C107.376 87.982 108.162 88.186 109.038 88.186C109.95 88.186 110.73 87.988 111.378 87.592C112.038 87.184 112.542 86.602 112.89 85.846H114.852C114.384 87.046 113.64 87.976 112.62 88.636C111.6 89.284 110.406 89.608 109.038 89.608C107.874 89.608 106.812 89.338 105.852 88.798C104.904 88.246 104.154 87.484 103.602 86.512C103.05 85.54 102.774 84.442 102.774 83.218ZM121.592 89.662C120.668 89.662 119.828 89.452 119.072 89.032C118.328 88.612 117.74 88.018 117.308 87.25C116.888 86.47 116.678 85.57 116.678 84.55C116.678 83.542 116.894 82.654 117.326 81.886C117.77 81.106 118.37 80.512 119.126 80.104C119.882 79.684 120.728 79.474 121.664 79.474C122.6 79.474 123.446 79.684 124.202 80.104C124.958 80.512 125.552 81.1 125.984 81.868C126.428 82.636 126.65 83.53 126.65 84.55C126.65 85.57 126.422 86.47 125.966 87.25C125.522 88.018 124.916 88.612 124.148 89.032C123.38 89.452 122.528 89.662 121.592 89.662ZM121.592 88.222C122.18 88.222 122.732 88.084 123.248 87.808C123.764 87.532 124.178 87.118 124.49 86.566C124.814 86.014 124.976 85.342 124.976 84.55C124.976 83.758 124.82 83.086 124.508 82.534C124.196 81.982 123.788 81.574 123.284 81.31C122.78 81.034 122.234 80.896 121.646 80.896C121.046 80.896 120.494 81.034 119.99 81.31C119.498 81.574 119.102 81.982 118.802 82.534C118.502 83.086 118.352 83.758 118.352 84.55C118.352 85.354 118.496 86.032 118.784 86.584C119.084 87.136 119.48 87.55 119.972 87.826C120.464 88.09 121.004 88.222 121.592 88.222ZM140.666 79.456C141.434 79.456 142.118 79.618 142.718 79.942C143.318 80.254 143.792 80.728 144.14 81.364C144.488 82 144.662 82.774 144.662 83.686V89.5H143.042V83.92C143.042 82.936 142.796 82.186 142.304 81.67C141.824 81.142 141.17 80.878 140.342 80.878C139.49 80.878 138.812 81.154 138.308 81.706C137.804 82.246 137.552 83.032 137.552 84.064V89.5H135.932V83.92C135.932 82.936 135.686 82.186 135.194 81.67C134.714 81.142 134.06 80.878 133.232 80.878C132.38 80.878 131.702 81.154 131.198 81.706C130.694 82.246 130.442 83.032 130.442 84.064V89.5H128.804V79.636H130.442V81.058C130.766 80.542 131.198 80.146 131.738 79.87C132.29 79.594 132.896 79.456 133.556 79.456C134.384 79.456 135.116 79.642 135.752 80.014C136.388 80.386 136.862 80.932 137.174 81.652C137.45 80.956 137.906 80.416 138.542 80.032C139.178 79.648 139.886 79.456 140.666 79.456ZM148.987 81.454C149.311 80.89 149.791 80.422 150.427 80.05C151.075 79.666 151.825 79.474 152.677 79.474C153.553 79.474 154.345 79.684 155.053 80.104C155.773 80.524 156.337 81.118 156.745 81.886C157.153 82.642 157.357 83.524 157.357 84.532C157.357 85.528 157.153 86.416 156.745 87.196C156.337 87.976 155.773 88.582 155.053 89.014C154.345 89.446 153.553 89.662 152.677 89.662C151.837 89.662 151.093 89.476 150.445 89.104C149.809 88.72 149.323 88.246 148.987 87.682V94.18H147.349V79.636H148.987V81.454ZM155.683 84.532C155.683 83.788 155.533 83.14 155.233 82.588C154.933 82.036 154.525 81.616 154.009 81.328C153.505 81.04 152.947 80.896 152.335 80.896C151.735 80.896 151.177 81.046 150.661 81.346C150.157 81.634 149.749 82.06 149.437 82.624C149.137 83.176 148.987 83.818 148.987 84.55C148.987 85.294 149.137 85.948 149.437 86.512C149.749 87.064 150.157 87.49 150.661 87.79C151.177 88.078 151.735 88.222 152.335 88.222C152.947 88.222 153.505 88.078 154.009 87.79C154.525 87.49 154.933 87.064 155.233 86.512C155.533 85.948 155.683 85.288 155.683 84.532ZM158.901 84.532C158.901 83.524 159.105 82.642 159.513 81.886C159.921 81.118 160.479 80.524 161.187 80.104C161.907 79.684 162.705 79.474 163.581 79.474C164.445 79.474 165.195 79.66 165.831 80.032C166.467 80.404 166.941 80.872 167.253 81.436V79.636H168.909V89.5H167.253V87.664C166.929 88.24 166.443 88.72 165.795 89.104C165.159 89.476 164.415 89.662 163.563 89.662C162.687 89.662 161.895 89.446 161.187 89.014C160.479 88.582 159.921 87.976 159.513 87.196C159.105 86.416 158.901 85.528 158.901 84.532ZM167.253 84.55C167.253 83.806 167.103 83.158 166.803 82.606C166.503 82.054 166.095 81.634 165.579 81.346C165.075 81.046 164.517 80.896 163.905 80.896C163.293 80.896 162.735 81.04 162.231 81.328C161.727 81.616 161.325 82.036 161.025 82.588C160.725 83.14 160.575 83.788 160.575 84.532C160.575 85.288 160.725 85.948 161.025 86.512C161.325 87.064 161.727 87.49 162.231 87.79C162.735 88.078 163.293 88.222 163.905 88.222C164.517 88.222 165.075 88.078 165.579 87.79C166.095 87.49 166.503 87.064 166.803 86.512C167.103 85.948 167.253 85.294 167.253 84.55ZM176.483 79.456C177.683 79.456 178.655 79.822 179.399 80.554C180.143 81.274 180.515 82.318 180.515 83.686V89.5H178.895V83.92C178.895 82.936 178.649 82.186 178.157 81.67C177.665 81.142 176.993 80.878 176.141 80.878C175.277 80.878 174.587 81.148 174.071 81.688C173.567 82.228 173.315 83.014 173.315 84.046V89.5H171.677V79.636H173.315V81.04C173.639 80.536 174.077 80.146 174.629 79.87C175.193 79.594 175.811 79.456 176.483 79.456ZM191.687 79.636L185.747 94.144H184.055L185.999 89.392L182.021 79.636H183.839L186.935 87.628L189.995 79.636H191.687ZM107.292 104.954C108.66 104.954 109.842 105.212 110.838 105.728C111.846 106.232 112.614 106.958 113.142 107.906C113.682 108.854 113.952 109.97 113.952 111.254C113.952 112.538 113.682 113.654 113.142 114.602C112.614 115.538 111.846 116.258 110.838 116.762C109.842 117.254 108.66 117.5 107.292 117.5H103.386V104.954H107.292ZM107.292 116.15C108.912 116.15 110.148 115.724 111 114.872C111.852 114.008 112.278 112.802 112.278 111.254C112.278 109.694 111.846 108.476 110.982 107.6C110.13 106.724 108.9 106.286 107.292 106.286H105.024V116.15H107.292ZM125.113 112.19C125.113 112.502 125.095 112.832 125.059 113.18H117.175C117.235 114.152 117.565 114.914 118.165 115.466C118.777 116.006 119.515 116.276 120.379 116.276C121.087 116.276 121.675 116.114 122.143 115.79C122.623 115.454 122.959 115.01 123.151 114.458H124.915C124.651 115.406 124.123 116.18 123.331 116.78C122.539 117.368 121.555 117.662 120.379 117.662C119.443 117.662 118.603 117.452 117.859 117.032C117.127 116.612 116.551 116.018 116.131 115.25C115.711 114.47 115.501 113.57 115.501 112.55C115.501 111.53 115.705 110.636 116.113 109.868C116.521 109.1 117.091 108.512 117.823 108.104C118.567 107.684 119.419 107.474 120.379 107.474C121.315 107.474 122.143 107.678 122.863 108.086C123.583 108.494 124.135 109.058 124.519 109.778C124.915 110.486 125.113 111.29 125.113 112.19ZM123.421 111.848C123.421 111.224 123.283 110.69 123.007 110.246C122.731 109.79 122.353 109.448 121.873 109.22C121.405 108.98 120.883 108.86 120.307 108.86C119.479 108.86 118.771 109.124 118.183 109.652C117.607 110.18 117.277 110.912 117.193 111.848H123.421ZM130.767 117.662C130.011 117.662 129.333 117.536 128.733 117.284C128.133 117.02 127.659 116.66 127.311 116.204C126.963 115.736 126.771 115.202 126.735 114.602H128.427C128.475 115.094 128.703 115.496 129.111 115.808C129.531 116.12 130.077 116.276 130.749 116.276C131.373 116.276 131.865 116.138 132.225 115.862C132.585 115.586 132.765 115.238 132.765 114.818C132.765 114.386 132.573 114.068 132.189 113.864C131.805 113.648 131.211 113.438 130.407 113.234C129.675 113.042 129.075 112.85 128.607 112.658C128.151 112.454 127.755 112.16 127.419 111.776C127.095 111.38 126.933 110.864 126.933 110.228C126.933 109.724 127.083 109.262 127.383 108.842C127.683 108.422 128.109 108.092 128.661 107.852C129.213 107.6 129.843 107.474 130.551 107.474C131.643 107.474 132.525 107.75 133.197 108.302C133.869 108.854 134.229 109.61 134.277 110.57H132.639C132.603 110.054 132.393 109.64 132.009 109.328C131.637 109.016 131.133 108.86 130.497 108.86C129.909 108.86 129.441 108.986 129.093 109.238C128.745 109.49 128.571 109.82 128.571 110.228C128.571 110.552 128.673 110.822 128.877 111.038C129.093 111.242 129.357 111.41 129.669 111.542C129.993 111.662 130.437 111.8 131.001 111.956C131.709 112.148 132.285 112.34 132.729 112.532C133.173 112.712 133.551 112.988 133.863 113.36C134.187 113.732 134.355 114.218 134.367 114.818C134.367 115.358 134.217 115.844 133.917 116.276C133.617 116.708 133.191 117.05 132.639 117.302C132.099 117.542 131.475 117.662 130.767 117.662ZM136.067 112.55C136.067 111.53 136.271 110.642 136.679 109.886C137.087 109.118 137.651 108.524 138.371 108.104C139.103 107.684 139.937 107.474 140.873 107.474C142.085 107.474 143.081 107.768 143.861 108.356C144.653 108.944 145.175 109.76 145.427 110.804H143.663C143.495 110.204 143.165 109.73 142.673 109.382C142.193 109.034 141.593 108.86 140.873 108.86C139.937 108.86 139.181 109.184 138.605 109.832C138.029 110.468 137.741 111.374 137.741 112.55C137.741 113.738 138.029 114.656 138.605 115.304C139.181 115.952 139.937 116.276 140.873 116.276C141.593 116.276 142.193 116.108 142.673 115.772C143.153 115.436 143.483 114.956 143.663 114.332H145.427C145.163 115.34 144.635 116.15 143.843 116.762C143.051 117.362 142.061 117.662 140.873 117.662C139.937 117.662 139.103 117.452 138.371 117.032C137.651 116.612 137.087 116.018 136.679 115.25C136.271 114.482 136.067 113.582 136.067 112.55ZM149.251 109.238C149.539 108.674 149.947 108.236 150.475 107.924C151.015 107.612 151.669 107.456 152.437 107.456V109.148H152.005C150.169 109.148 149.251 110.144 149.251 112.136V117.5H147.613V107.636H149.251V109.238ZM155.173 106.034C154.861 106.034 154.597 105.926 154.381 105.71C154.165 105.494 154.057 105.23 154.057 104.918C154.057 104.606 154.165 104.342 154.381 104.126C154.597 103.91 154.861 103.802 155.173 103.802C155.473 103.802 155.725 103.91 155.929 104.126C156.145 104.342 156.253 104.606 156.253 104.918C156.253 105.23 156.145 105.494 155.929 105.71C155.725 105.926 155.473 106.034 155.173 106.034ZM155.965 107.636V117.5H154.327V107.636H155.965ZM160.395 109.454C160.719 108.89 161.199 108.422 161.835 108.05C162.483 107.666 163.233 107.474 164.085 107.474C164.961 107.474 165.753 107.684 166.461 108.104C167.181 108.524 167.745 109.118 168.153 109.886C168.561 110.642 168.765 111.524 168.765 112.532C168.765 113.528 168.561 114.416 168.153 115.196C167.745 115.976 167.181 116.582 166.461 117.014C165.753 117.446 164.961 117.662 164.085 117.662C163.245 117.662 162.501 117.476 161.853 117.104C161.217 116.72 160.731 116.246 160.395 115.682V122.18H158.757V107.636H160.395V109.454ZM167.091 112.532C167.091 111.788 166.941 111.14 166.641 110.588C166.341 110.036 165.933 109.616 165.417 109.328C164.913 109.04 164.355 108.896 163.743 108.896C163.143 108.896 162.585 109.046 162.069 109.346C161.565 109.634 161.157 110.06 160.845 110.624C160.545 111.176 160.395 111.818 160.395 112.55C160.395 113.294 160.545 113.948 160.845 114.512C161.157 115.064 161.565 115.49 162.069 115.79C162.585 116.078 163.143 116.222 163.743 116.222C164.355 116.222 164.913 116.078 165.417 115.79C165.933 115.49 166.341 115.064 166.641 114.512C166.941 113.948 167.091 113.288 167.091 112.532ZM172.919 108.986V114.8C172.919 115.28 173.021 115.622 173.225 115.826C173.429 116.018 173.783 116.114 174.287 116.114H175.493V117.5H174.017C173.105 117.5 172.421 117.29 171.965 116.87C171.509 116.45 171.281 115.76 171.281 114.8V108.986H170.003V107.636H171.281V105.152H172.919V107.636H175.493V108.986H172.919ZM178.324 106.034C178.012 106.034 177.748 105.926 177.532 105.71C177.316 105.494 177.208 105.23 177.208 104.918C177.208 104.606 177.316 104.342 177.532 104.126C177.748 103.91 178.012 103.802 178.324 103.802C178.624 103.802 178.876 103.91 179.08 104.126C179.296 104.342 179.404 104.606 179.404 104.918C179.404 105.23 179.296 105.494 179.08 105.71C178.876 105.926 178.624 106.034 178.324 106.034ZM179.116 107.636V117.5H177.478V107.636H179.116ZM186.209 117.662C185.285 117.662 184.445 117.452 183.689 117.032C182.945 116.612 182.357 116.018 181.925 115.25C181.505 114.47 181.295 113.57 181.295 112.55C181.295 111.542 181.511 110.654 181.943 109.886C182.387 109.106 182.987 108.512 183.743 108.104C184.499 107.684 185.345 107.474 186.281 107.474C187.217 107.474 188.063 107.684 188.819 108.104C189.575 108.512 190.169 109.1 190.601 109.868C191.045 110.636 191.267 111.53 191.267 112.55C191.267 113.57 191.039 114.47 190.583 115.25C190.139 116.018 189.533 116.612 188.765 117.032C187.997 117.452 187.145 117.662 186.209 117.662ZM186.209 116.222C186.797 116.222 187.349 116.084 187.865 115.808C188.381 115.532 188.795 115.118 189.107 114.566C189.431 114.014 189.593 113.342 189.593 112.55C189.593 111.758 189.437 111.086 189.125 110.534C188.813 109.982 188.405 109.574 187.901 109.31C187.397 109.034 186.851 108.896 186.263 108.896C185.663 108.896 185.111 109.034 184.607 109.31C184.115 109.574 183.719 109.982 183.419 110.534C183.119 111.086 182.969 111.758 182.969 112.55C182.969 113.354 183.113 114.032 183.401 114.584C183.701 115.136 184.097 115.55 184.589 115.826C185.081 116.09 185.621 116.222 186.209 116.222ZM198.227 107.456C199.427 107.456 200.399 107.822 201.143 108.554C201.887 109.274 202.259 110.318 202.259 111.686V117.5H200.639V111.92C200.639 110.936 200.393 110.186 199.901 109.67C199.409 109.142 198.737 108.878 197.885 108.878C197.021 108.878 196.331 109.148 195.815 109.688C195.311 110.228 195.059 111.014 195.059 112.046V117.5H193.421V107.636H195.059V109.04C195.383 108.536 195.821 108.146 196.373 107.87C196.937 107.594 197.555 107.456 198.227 107.456Z" fill="#121B2C"/>
<path d="M299.334 97H314.001M314.001 97L308.501 91.5M314.001 97L308.501 102.5" stroke="#121B2C" stroke-width="2" stroke-linecap="round" stroke-linejoin="round"/>
</svg>
