<svg width="4498" height="405" viewBox="0 0 4498 405" fill="none" xmlns="http://www.w3.org/2000/svg">
<path fill-rule="evenodd" clip-rule="evenodd" d="M1436.46 87.6912V79.0662C1436.46 67.3162 1438.96 59.1912 1443.96 54.6912C1448.43 50.6648 1456.01 48.5398 1466.68 48.3162C1467.94 48.2899 1469.24 48.2899 1470.58 48.3162V4.06618C1441.33 3.31617 1419.46 8.94117 1404.96 20.9412C1390.46 32.9412 1383.21 51.6912 1383.21 77.1912V87.6912H1359.58V130.816H1383.21V295.441H1436.46V130.816H1472.83V87.6912H1436.46ZM1468.83 91.6912H1432.46V79.0662C1432.46 66.979 1434.99 57.3824 1441.28 51.718C1446.81 46.7435 1455.55 44.5501 1466.58 44.3173V8.00312C1439.8 7.84763 1420.33 13.4096 1407.51 24.0227C1394.22 35.0171 1387.21 52.4349 1387.21 77.1912V91.6912H1363.58V126.816H1387.21V291.441H1432.46V126.816H1468.83V91.6912ZM4088.75 134.941C4080.5 151.191 4076.37 169.816 4076.37 190.816C4076.37 212.066 4080.5 230.941 4088.75 247.441C4097.25 263.691 4108.75 276.316 4123.25 285.316C4137.75 294.316 4153.75 298.816 4171.25 298.816C4186.75 298.816 4200.37 295.691 4212.12 289.441C4221.63 284.382 4229.42 278.011 4235.5 270.331C4236.92 268.523 4238.26 266.644 4239.5 264.691V295.441H4292.75V17.9412H4239.5V116.566C4238.24 114.874 4236.9 113.243 4235.5 111.671C4228.79 104.187 4220.37 98.0684 4210.25 93.3162C4198 87.3162 4185.12 84.3162 4171.62 84.3162C4153.87 84.3162 4137.75 88.6912 4123.25 97.4412C4108.75 106.191 4097.25 118.691 4088.75 134.941ZM4092.3 136.777C4084.38 152.381 4080.37 170.36 4080.37 190.816C4080.37 211.524 4084.38 229.758 4092.31 245.615C4100.5 261.267 4111.52 273.328 4125.36 281.918C4139.21 290.514 4154.47 294.816 4171.25 294.816C4186.2 294.816 4199.16 291.805 4210.24 285.91C4221.44 279.953 4230.02 272.158 4236.12 262.549L4243.5 250.914V291.441H4288.75V21.9412H4243.5V128.649L4236.29 118.953C4229.47 109.791 4220.27 102.439 4208.55 96.9371L4208.52 96.923L4208.49 96.9084C4196.78 91.1738 4184.5 88.3162 4171.62 88.3162C4154.56 88.3162 4139.16 92.5107 4125.31 100.866C4111.5 109.203 4100.49 121.129 4092.3 136.777ZM4232.37 158.941C4237.37 167.941 4239.87 178.816 4239.87 191.566C4239.87 204.316 4237.37 215.316 4232.37 224.566C4227.37 233.566 4220.62 240.566 4212.12 245.566C4203.62 250.316 4194.5 252.691 4184.75 252.691C4175.25 252.691 4166.25 250.191 4157.75 245.191C4149.5 240.191 4142.75 233.066 4137.5 223.816C4132.5 214.316 4130 203.316 4130 190.816C4130 178.316 4132.5 167.566 4137.5 158.566C4142.75 149.316 4149.5 142.316 4157.75 137.566C4166 132.816 4175 130.441 4184.75 130.441C4194.5 130.441 4203.62 132.941 4212.12 137.941C4220.62 142.691 4227.37 149.691 4232.37 158.941ZM4235.88 157.02C4241.27 166.736 4243.87 178.306 4243.87 191.566C4243.87 204.84 4241.27 216.522 4235.89 226.468L4235.88 226.489L4235.87 226.509C4230.54 236.104 4223.29 243.636 4214.15 249.014L4214.11 249.036L4214.07 249.058C4204.98 254.142 4195.18 256.691 4184.75 256.691C4174.51 256.691 4164.81 253.986 4155.72 248.639L4155.7 248.626L4155.67 248.612C4146.78 243.222 4139.57 235.572 4134.02 225.791L4133.99 225.735L4133.96 225.679C4128.61 215.517 4126 203.858 4126 190.816C4126 177.781 4128.61 166.333 4134 156.624L4134.01 156.608L4134.02 156.592C4139.58 146.796 4146.81 139.246 4155.75 134.1C4164.62 128.991 4174.31 126.441 4184.75 126.441C4195.2 126.441 4205.02 129.129 4214.11 134.472C4223.3 139.618 4230.56 147.181 4235.88 157.02ZM4370.27 289.816C4383.77 295.816 4399.02 298.816 4416.02 298.816C4432.52 298.816 4446.9 296.191 4459.15 290.941C4471.65 285.441 4481.15 277.941 4487.65 268.441C4494.4 258.941 4497.77 248.191 4497.77 236.191C4497.52 222.441 4493.77 211.441 4486.52 203.191C4479.52 194.691 4471.15 188.441 4461.4 184.441C4451.65 180.441 4439.27 176.566 4424.27 172.816C4409.52 169.066 4398.65 165.441 4391.65 161.941C4384.65 158.191 4381.15 152.816 4381.15 145.816C4381.15 139.566 4383.65 134.691 4388.65 131.191C4393.9 127.691 4401.27 125.941 4410.77 125.941C4421.02 125.941 4429.15 128.441 4435.15 133.441C4441.4 138.191 4444.9 144.691 4445.65 152.941H4495.9C4495.8 151.59 4495.68 150.256 4495.52 148.941C4493.32 129.819 4485.32 114.528 4471.52 103.066C4456.77 90.5662 4437.02 84.3162 4412.27 84.3162C4395.52 84.3162 4380.9 87.0662 4368.4 92.5662C4356.15 98.0662 4346.65 105.566 4339.9 115.066C4333.4 124.566 4330.15 135.066 4330.15 146.566C4330.15 160.566 4333.65 171.691 4340.65 179.941C4347.9 188.191 4356.4 194.316 4366.15 198.316C4376.15 202.316 4388.9 206.191 4404.4 209.941C4419.4 213.941 4430.27 217.691 4437.02 221.191C4444.02 224.441 4447.52 229.441 4447.52 236.191C4447.52 242.441 4444.65 247.566 4438.9 251.566C4433.4 255.566 4425.65 257.566 4415.65 257.566C4405.4 257.566 4396.77 254.941 4389.77 249.691C4383.02 244.441 4379.15 237.816 4378.15 229.816H4325.27C4325.35 231.162 4325.47 232.495 4325.63 233.816C4326.96 245.008 4331.09 255.3 4338.02 264.691C4346.02 275.191 4356.77 283.566 4370.27 289.816ZM4371.92 286.173C4384.83 291.906 4399.51 294.816 4416.02 294.816C4432.1 294.816 4445.91 292.259 4457.56 287.27C4469.49 282.015 4478.34 274.954 4484.35 266.182L4484.37 266.153L4484.39 266.124C4490.63 257.331 4493.77 247.406 4493.77 236.224C4493.53 223.194 4489.99 213.198 4483.52 205.832L4483.47 205.783L4483.43 205.734C4476.83 197.72 4468.99 191.88 4459.88 188.142C4450.37 184.24 4438.19 180.419 4423.3 176.697L4423.29 176.695L4423.29 176.693C4408.47 172.925 4397.25 169.217 4389.86 165.519L4389.81 165.494L4389.76 165.467C4385.8 163.349 4382.61 160.65 4380.42 157.28C4378.21 153.884 4377.15 150.017 4377.15 145.816C4377.15 138.298 4380.25 132.184 4386.35 127.914L4386.39 127.888L4386.43 127.863C4392.59 123.755 4400.86 121.941 4410.77 121.941C4421.62 121.941 4430.73 124.586 4437.64 130.311C4443.83 135.043 4447.66 141.325 4449.12 148.941H4491.5C4489.33 130.96 4481.79 116.793 4468.97 106.143L4468.95 106.131L4468.94 106.118C4455.09 94.3852 4436.35 88.3162 4412.27 88.3162C4395.96 88.3162 4381.92 90.9921 4370.03 96.2176C4358.34 101.465 4349.45 108.533 4343.18 117.354C4337.15 126.181 4334.15 135.885 4334.15 146.566C4334.15 159.887 4337.46 169.993 4343.68 177.328C4350.53 185.117 4358.51 190.858 4367.65 194.609C4377.41 198.511 4389.95 202.331 4405.34 206.053L4405.38 206.064L4405.43 206.076C4420.43 210.076 4431.63 213.902 4438.79 217.6C4442.72 219.441 4445.94 221.895 4448.17 225.085C4450.44 228.328 4451.52 232.086 4451.52 236.191C4451.52 243.909 4447.87 250.183 4441.22 254.823C4434.78 259.489 4426.1 261.566 4415.65 261.566C4404.68 261.566 4395.18 258.746 4387.37 252.891L4387.34 252.87L4387.32 252.849C4380.77 247.758 4376.54 241.385 4374.8 233.816H4329.66C4330.96 244.114 4334.8 253.589 4341.22 262.293C4348.77 272.193 4358.96 280.168 4371.92 286.173ZM3998.26 119.941C3999.52 117.882 4000.86 115.907 4002.26 114.015C4008.35 105.796 4015.77 99.1465 4024.51 94.0662C4034.45 88.4176 4045.62 85.3215 4058.01 84.778C4059.33 84.7201 4060.66 84.6912 4062.01 84.6912V139.816H4048.13C4031.63 139.816 4019.13 143.691 4010.63 151.441C4002.38 159.191 3998.26 172.691 3998.26 191.941V295.441H3945.76V87.6912H3998.26V119.941ZM4001.67 122.033C4008.08 111.581 4016.35 103.438 4026.5 97.5345C4035.79 92.2604 4046.27 89.3213 4058.01 88.782V135.816H4048.13C4031.07 135.816 4017.44 139.821 4007.94 148.485L4007.92 148.505L4007.9 148.526C3998.43 157.418 3994.26 172.319 3994.26 191.941V291.441H3949.76V91.6912H3994.26V134.108L4001.67 122.033ZM3697.98 134.941C3689.73 151.191 3685.61 169.816 3685.61 190.816C3685.61 212.066 3689.73 230.941 3697.98 247.441C3706.48 263.691 3717.86 276.316 3732.11 285.316C3746.61 294.316 3762.61 298.816 3780.11 298.816C3795.61 298.816 3809.23 295.691 3820.98 289.441C3830.77 284.139 3838.81 277.756 3845.11 270.292C3846.53 268.605 3847.87 266.863 3849.11 265.066V295.441H3901.98V87.6912H3849.11V117.316C3847.85 115.611 3846.52 113.957 3845.11 112.356C3838.67 105.041 3830.62 98.819 3820.98 93.6911C3809.48 87.4412 3795.98 84.3162 3780.48 84.3162C3762.73 84.3162 3746.61 88.6912 3732.11 97.4412C3717.86 106.191 3706.48 118.691 3697.98 134.941ZM3701.54 136.777C3693.62 152.381 3689.61 170.36 3689.61 190.816C3689.61 211.524 3693.62 229.758 3701.54 245.615C3709.74 261.281 3720.65 273.344 3734.24 281.929C3748.08 290.518 3763.34 294.816 3780.11 294.816C3795.06 294.816 3808.02 291.807 3819.1 285.914C3830.62 279.67 3839.48 271.945 3845.82 262.789L3853.11 252.261V291.441H3897.98V91.6912H3853.11V129.488L3845.89 119.689C3839.29 110.729 3830.4 103.228 3819.11 97.2226L3819.09 97.2142L3819.07 97.2057C3808.26 91.3282 3795.44 88.3162 3780.48 88.3162C3763.43 88.3162 3748.03 92.5085 3734.19 100.859C3720.62 109.192 3709.73 121.118 3701.54 136.777ZM3841.61 158.941C3846.61 167.941 3849.11 178.816 3849.11 191.566C3849.11 204.316 3846.61 215.316 3841.61 224.566C3836.61 233.566 3829.86 240.566 3821.36 245.566C3812.86 250.316 3803.73 252.691 3793.98 252.691C3784.48 252.691 3775.48 250.191 3766.98 245.191C3758.73 240.191 3751.98 233.066 3746.73 223.816C3741.73 214.316 3739.23 203.316 3739.23 190.816C3739.23 178.316 3741.73 167.566 3746.73 158.566C3751.98 149.316 3758.73 142.316 3766.98 137.566C3775.23 132.816 3784.23 130.441 3793.98 130.441C3803.73 130.441 3812.86 132.941 3821.36 137.941C3829.86 142.691 3836.61 149.691 3841.61 158.941ZM3845.12 157.02C3850.51 166.736 3853.11 178.306 3853.11 191.566C3853.11 204.84 3850.5 216.522 3845.13 226.468L3845.12 226.489L3845.11 226.509C3839.78 236.104 3832.53 243.636 3823.39 249.014L3823.35 249.036L3823.31 249.058C3814.21 254.142 3804.42 256.691 3793.98 256.691C3783.74 256.691 3774.05 253.986 3764.96 248.639L3764.93 248.626L3764.91 248.612C3756.02 243.222 3748.81 235.572 3743.26 225.791L3743.22 225.735L3743.19 225.679C3737.85 215.517 3735.23 203.858 3735.23 190.816C3735.23 177.781 3737.84 166.333 3743.24 156.624L3743.25 156.608L3743.26 156.592C3748.82 146.796 3756.05 139.246 3764.99 134.1C3773.86 128.991 3783.55 126.441 3793.98 126.441C3804.44 126.441 3814.25 129.129 3823.35 134.472C3832.54 139.618 3839.8 147.181 3845.12 157.02ZM3559.72 298.816C3539.72 298.816 3521.72 294.441 3505.72 285.691C3489.72 276.691 3477.1 264.066 3467.85 247.816C3458.85 231.566 3454.35 212.816 3454.35 191.566C3454.35 170.316 3458.97 151.566 3468.22 135.316C3477.72 119.066 3490.6 106.566 3506.85 97.8162C3523.1 88.8162 3541.22 84.3162 3561.22 84.3162C3581.22 84.3162 3599.35 88.8162 3615.6 97.8162C3631.85 106.566 3644.6 119.066 3653.85 135.316C3663.35 151.566 3668.1 170.316 3668.1 191.566C3668.1 212.816 3663.22 231.566 3653.47 247.816C3643.97 264.066 3630.97 276.691 3614.47 285.691C3598.22 294.441 3579.97 298.816 3559.72 298.816ZM3559.72 294.816C3540.34 294.816 3523.01 290.583 3507.66 282.192C3492.32 273.56 3480.23 261.473 3471.34 245.861C3462.72 230.289 3458.35 212.229 3458.35 191.566C3458.35 170.919 3462.84 152.873 3471.69 137.307C3480.83 121.692 3493.17 109.727 3508.75 101.338L3508.77 101.327L3508.79 101.315C3524.4 92.6688 3541.85 88.3162 3561.22 88.3162C3580.6 88.3162 3598.05 92.6688 3613.66 101.315L3613.68 101.327L3613.7 101.338C3629.28 109.727 3641.49 121.688 3650.37 137.295L3650.38 137.315L3650.4 137.335C3659.49 152.897 3664.1 170.932 3664.1 191.566C3664.1 212.181 3659.38 230.203 3650.04 245.758L3650.03 245.778L3650.02 245.797C3640.89 261.414 3628.43 273.519 3612.58 282.169C3596.97 290.576 3579.38 294.816 3559.72 294.816ZM3559.72 253.066C3569.22 253.066 3578.1 250.816 3586.35 246.316C3594.85 241.566 3601.6 234.566 3606.6 225.316C3611.6 216.066 3614.1 204.816 3614.1 191.566C3614.1 171.816 3608.85 156.691 3598.35 146.191C3588.1 135.441 3575.47 130.066 3560.47 130.066C3545.47 130.066 3532.85 135.441 3522.6 146.191C3512.6 156.691 3507.6 171.816 3507.6 191.566C3507.6 211.316 3512.47 226.566 3522.22 237.316C3532.22 247.816 3544.72 253.066 3559.72 253.066ZM3560.47 126.066C3576.54 126.066 3590.21 131.87 3601.21 143.4C3612.66 154.87 3618.1 171.139 3618.1 191.566C3618.1 205.311 3615.51 217.251 3610.12 227.218C3604.79 237.081 3597.52 244.658 3588.3 249.808L3588.28 249.818L3588.26 249.828C3579.42 254.652 3569.89 257.066 3559.72 257.066C3543.67 257.066 3530.11 251.398 3519.33 240.075L3519.29 240.04L3519.26 240.003C3508.63 228.287 3503.6 211.947 3503.6 191.566C3503.6 171.168 3508.77 154.911 3519.7 143.433L3519.7 143.431C3530.72 131.88 3544.39 126.066 3560.47 126.066ZM3389.56 162.92C3387.28 162.219 3384.93 161.643 3382.51 161.191C3384.87 160.448 3387.15 159.612 3389.34 158.685C3399.68 154.312 3408.16 147.898 3414.76 139.441C3423.01 129.191 3427.13 116.441 3427.13 101.191C3427.13 88.1912 3423.76 76.5662 3417.01 66.3162C3410.51 56.0662 3400.76 48.0662 3387.76 42.3162C3375.01 36.5662 3359.76 33.6912 3342.01 33.6912H3234.01V295.441H3346.88C3364.63 295.441 3380.01 292.441 3393.01 286.441C3406.01 280.441 3415.88 272.191 3422.63 261.691C3429.63 250.941 3433.13 238.566 3433.13 224.566C3433.13 209.066 3428.38 195.316 3418.88 183.316C3410.94 173.286 3401.17 166.488 3389.56 162.92ZM3238.01 291.441H3346.88C3364.19 291.441 3378.97 288.516 3391.33 282.809C3403.74 277.08 3412.99 269.298 3419.27 259.528L3419.27 259.518L3419.28 259.508C3425.82 249.467 3429.13 237.865 3429.13 224.566C3429.13 209.955 3424.68 197.083 3415.75 185.799C3406.83 174.54 3395.55 167.692 3381.77 165.123L3381.31 157.376C3394.1 153.346 3404.15 146.535 3411.6 136.98L3411.62 136.956L3411.64 136.933C3419.23 127.504 3423.13 115.681 3423.13 101.191C3423.13 88.9245 3419.96 78.0735 3413.67 68.5161L3413.65 68.4874L3413.63 68.4583C3407.62 58.9848 3398.54 51.4602 3386.14 45.9743L3386.13 45.9685L3386.11 45.9625C3374 40.4994 3359.34 37.6912 3342.01 37.6912H3238.01V291.441ZM3334.51 141.691H3286.51V76.0661H3334.51C3347.01 76.0661 3356.63 78.9411 3363.38 84.6911C3370.13 90.4412 3373.51 98.5662 3373.51 109.066C3373.51 119.566 3370.13 127.691 3363.38 133.441C3356.63 138.941 3347.01 141.691 3334.51 141.691ZM3369.01 243.691C3362.01 249.691 3352.13 252.691 3339.38 252.691H3286.51V182.191H3338.26C3351.01 182.191 3361.13 185.441 3368.63 191.941C3376.13 198.191 3379.88 206.941 3379.88 218.191C3379.88 229.191 3376.26 237.691 3369.01 243.691ZM3371.59 246.749C3363.63 253.558 3352.71 256.691 3339.38 256.691H3282.51V178.191H3338.26C3351.67 178.191 3362.81 181.617 3371.22 188.89C3379.76 196.019 3383.88 205.968 3383.88 218.191C3383.88 230.145 3379.89 239.858 3371.59 246.749ZM3282.51 145.691V72.0661H3334.51C3347.57 72.0661 3358.25 75.069 3365.98 81.6462C3373.78 88.2981 3377.51 97.6324 3377.51 109.066C3377.51 120.5 3373.78 129.834 3365.98 136.486L3365.94 136.514L3365.91 136.542C3358.19 142.83 3347.54 145.691 3334.51 145.691H3282.51ZM3121.33 187.066C3121.33 194.566 3120.83 201.316 3119.83 207.316H2967.96C2968.07 208.676 2968.22 210.01 2968.39 211.316C2970.19 224.42 2975.29 234.837 2983.71 242.566C2992.96 251.066 3004.33 255.316 3017.83 255.316C3037.33 255.316 3051.21 246.941 3059.46 230.191H3116.08C3115.68 231.54 3115.25 232.874 3114.79 234.191C3108.5 252.402 3097.43 267.568 3081.58 279.691C3064.58 292.441 3043.71 298.816 3018.96 298.816C2998.96 298.816 2980.96 294.441 2964.96 285.691C2949.21 276.691 2936.83 264.066 2927.83 247.816C2919.08 231.566 2914.71 212.816 2914.71 191.566C2914.71 170.066 2919.08 151.191 2927.83 134.941C2936.58 118.691 2948.83 106.191 2964.58 97.4412C2980.33 88.6912 2998.46 84.3162 3018.96 84.3162C3038.71 84.3162 3056.33 88.5662 3071.83 97.0662C3087.58 105.566 3099.71 117.691 3108.21 133.441C3116.96 148.941 3121.33 166.816 3121.33 187.066ZM3117.33 187.066C3117.33 193.008 3117.01 198.421 3116.38 203.316H2963.61L2963.97 207.648C2965.29 223.439 2970.87 236.202 2981 245.511C2991.05 254.743 3003.41 259.316 3017.83 259.316C3028.16 259.316 3037.25 257.093 3044.93 252.459C3051.97 248.212 3057.6 242.068 3061.89 234.191H3110.55C3104.45 251.055 3094.02 265.139 3079.17 276.502C3062.97 288.643 3042.98 294.816 3018.96 294.816C2999.58 294.816 2982.26 290.586 2966.91 282.201C2951.83 273.578 2939.99 261.504 2931.34 245.898C2922.96 230.319 2918.71 212.246 2918.71 191.566C2918.71 170.618 2922.96 152.415 2931.35 136.838C2939.75 121.244 2951.46 109.307 2966.52 100.938C2981.6 92.5612 2999.04 88.3162 3018.96 88.3162C3038.11 88.3162 3055.06 92.4332 3069.91 100.573L3069.92 100.58L3069.93 100.586C3084.99 108.716 3096.56 120.277 3104.69 135.341L3104.7 135.374L3104.72 135.408C3113.09 150.229 3117.33 167.409 3117.33 187.066ZM3066.96 172.066C3066.93 170.705 3066.86 169.372 3066.74 168.066C3065.68 156.426 3060.87 147.009 3052.33 139.816C3042.83 131.566 3031.21 127.441 3017.46 127.441C3004.46 127.441 2993.46 131.441 2984.46 139.441C2976.56 146.437 2971.41 155.978 2969.01 168.066C2968.75 169.37 2968.53 170.703 2968.33 172.066H3066.96ZM3070.96 171.992C3070.69 157.461 3065.38 145.586 3054.93 136.774C3044.64 127.846 3032.06 123.441 3017.46 123.441C3003.56 123.441 2991.59 127.747 2981.8 136.452C2972.2 144.955 2966.48 156.77 2964.37 171.5L2963.72 176.066H3071.03L3070.96 171.992ZM2709.75 135.316C2701 151.316 2696.62 170.066 2696.62 191.566C2696.62 213.066 2701 231.941 2709.75 248.191C2718.5 264.191 2730.62 276.691 2746.12 285.691C2761.62 294.441 2779.37 298.816 2799.37 298.816C2824.87 298.816 2846.12 292.191 2863.12 278.941C2879.1 266.486 2890.11 249.944 2896.15 229.316C2896.53 227.999 2896.9 226.666 2897.25 225.316H2840.62C2834.12 244.316 2820.25 253.816 2799 253.816C2784 253.816 2772.12 248.441 2763.37 237.691C2754.62 226.691 2750.25 211.316 2750.25 191.566C2750.25 171.566 2754.62 156.191 2763.37 145.441C2772.12 134.441 2784 128.941 2799 128.941C2809.5 128.941 2818.25 131.566 2825.25 136.816C2832.5 141.816 2837.62 148.816 2840.62 157.816H2897.25C2896.91 156.465 2896.56 155.132 2896.19 153.816C2890.15 132.492 2879.13 115.825 2863.12 103.816C2846.37 90.8162 2825.12 84.3162 2799.37 84.3162C2779.37 84.3162 2761.62 88.8162 2746.12 97.8162C2730.62 106.566 2718.5 119.066 2709.75 135.316ZM2892.02 153.816C2886.14 133.759 2875.68 118.235 2860.72 107.016L2860.69 106.996L2860.67 106.976C2844.76 94.6297 2824.43 88.3162 2799.37 88.3162C2779.99 88.3162 2762.95 92.6693 2748.13 101.275L2748.11 101.288L2748.09 101.299C2733.27 109.664 2721.67 121.602 2713.27 137.213L2713.26 137.224L2713.25 137.235C2704.88 152.55 2700.62 170.617 2700.62 191.566C2700.62 212.505 2704.88 230.702 2713.26 246.275C2721.66 261.637 2733.26 273.594 2748.11 282.219C2762.93 290.583 2779.98 294.816 2799.37 294.816C2824.15 294.816 2844.49 288.393 2860.66 275.786C2875.64 264.111 2886.09 248.673 2891.98 229.316H2843.41C2839.91 238.175 2834.67 245.149 2827.6 249.992C2819.84 255.304 2810.21 257.816 2799 257.816C2782.9 257.816 2769.85 251.984 2760.27 240.216L2760.25 240.199L2760.24 240.181C2750.74 228.236 2746.25 211.861 2746.25 191.566C2746.25 171.051 2750.72 154.648 2760.26 142.929C2769.82 130.918 2782.88 124.941 2799 124.941C2810.15 124.941 2819.77 127.734 2827.58 133.568C2834.8 138.568 2840.08 145.365 2843.42 153.816H2892.02ZM2577.32 84.6912C2602.07 84.6912 2622.07 92.5662 2637.32 108.316C2652.57 123.816 2660.2 145.566 2660.2 173.566V295.441H2607.7V180.691C2607.7 164.191 2603.57 151.566 2595.32 142.816C2587.07 133.816 2575.82 129.316 2561.57 129.316C2547.07 129.316 2535.57 133.816 2527.07 142.816C2518.82 151.566 2514.7 164.191 2514.7 180.691V295.441H2462.2V87.6912H2514.7V113.566C2515.97 111.931 2517.3 110.363 2518.7 108.86C2524.98 102.089 2532.52 96.658 2541.32 92.5662C2552.32 87.3162 2564.32 84.6912 2577.32 84.6912ZM2656.2 173.566V291.441H2611.7V180.691C2611.7 163.566 2607.41 149.821 2598.25 140.09C2589.11 130.139 2576.72 125.316 2561.57 125.316C2546.17 125.316 2533.55 130.132 2524.16 140.07L2524.16 140.072C2514.98 149.804 2510.7 163.556 2510.7 180.691V291.441H2466.2V91.6912H2510.7V125.224L2517.85 116.022C2524.45 107.544 2532.81 100.936 2543.01 96.1931L2543.03 96.1847L2543.04 96.1761C2553.47 91.1998 2564.88 88.6912 2577.32 88.6912C2601.14 88.6912 2620.05 96.2303 2634.45 111.099L2634.46 111.11L2634.47 111.122C2648.79 125.675 2656.2 146.301 2656.2 173.566ZM2206.92 134.941C2198.67 151.191 2194.54 169.816 2194.54 190.816C2194.54 212.066 2198.67 230.941 2206.92 247.441C2215.42 263.691 2226.79 276.316 2241.04 285.316C2255.54 294.316 2271.54 298.816 2289.04 298.816C2304.54 298.816 2318.17 295.691 2329.92 289.441C2339.71 284.139 2347.75 277.756 2354.04 270.292C2355.47 268.605 2356.8 266.863 2358.04 265.066V295.441H2410.92V87.6912H2358.04V117.316C2356.79 115.611 2355.45 113.957 2354.04 112.356C2347.6 105.041 2339.56 98.819 2329.92 93.6911C2318.42 87.4412 2304.92 84.3162 2289.42 84.3162C2271.67 84.3162 2255.54 88.6912 2241.04 97.4412C2226.79 106.191 2215.42 118.691 2206.92 134.941ZM2210.47 136.777C2202.56 152.381 2198.54 170.36 2198.54 190.816C2198.54 211.526 2202.56 229.762 2210.48 245.62C2218.68 261.281 2229.58 273.341 2243.17 281.925C2257.01 290.517 2272.28 294.816 2289.04 294.816C2303.99 294.816 2316.95 291.808 2328.03 285.918C2339.55 279.673 2348.42 271.947 2354.76 262.789L2362.04 252.261V291.441H2406.92V91.6912H2362.04V129.488L2354.82 119.689C2348.22 110.729 2339.33 103.228 2328.04 97.2226L2328.03 97.2142L2328.01 97.2057C2317.2 91.3282 2304.38 88.3162 2289.42 88.3162C2272.37 88.3162 2256.97 92.5085 2243.12 100.859C2229.56 109.192 2218.67 121.118 2210.47 136.777ZM2350.54 158.941C2355.54 167.941 2358.04 178.816 2358.04 191.566C2358.04 204.316 2355.54 215.316 2350.54 224.566C2345.54 233.566 2338.79 240.566 2330.29 245.566C2321.79 250.316 2312.67 252.691 2302.92 252.691C2293.42 252.691 2284.42 250.191 2275.92 245.191C2267.67 240.191 2260.92 233.066 2255.67 223.816C2250.67 214.316 2248.17 203.316 2248.17 190.816C2248.17 178.316 2250.67 167.566 2255.67 158.566C2260.92 149.316 2267.67 142.316 2275.92 137.566C2284.17 132.816 2293.17 130.441 2302.92 130.441C2312.67 130.441 2321.79 132.941 2330.29 137.941C2338.79 142.691 2345.54 149.691 2350.54 158.941ZM2354.05 157.02C2359.45 166.736 2362.04 178.306 2362.04 191.566C2362.04 204.84 2359.44 216.522 2354.06 226.468L2354.05 226.489L2354.04 226.509C2348.71 236.104 2341.47 243.636 2332.32 249.014L2332.28 249.036L2332.25 249.058C2323.15 254.142 2313.35 256.691 2302.92 256.691C2292.68 256.691 2282.98 253.986 2273.89 248.639L2273.87 248.626L2273.85 248.612C2264.95 243.222 2257.74 235.572 2252.19 225.791L2252.16 225.735L2252.13 225.679C2246.78 215.517 2244.17 203.858 2244.17 190.816C2244.17 177.781 2246.78 166.333 2252.17 156.624L2252.18 156.608L2252.19 156.592C2257.75 146.796 2264.99 139.246 2273.92 134.1C2282.8 128.991 2292.49 126.441 2302.92 126.441C2313.38 126.441 2323.19 129.128 2332.28 134.471C2341.48 139.617 2348.73 147.18 2354.05 157.02ZM2091.85 84.6912C2117.35 84.6912 2137.85 92.5662 2153.35 108.316C2169.1 123.816 2176.98 145.566 2176.98 173.566V295.441H2124.48V180.691C2124.48 164.441 2120.35 152.066 2112.1 143.566C2103.85 134.816 2092.6 130.441 2078.35 130.441C2064.1 130.441 2052.73 134.816 2044.23 143.566C2035.98 152.066 2031.85 164.441 2031.85 180.691V295.441H1979.35V180.691C1979.35 164.441 1975.23 152.066 1966.98 143.566C1958.73 134.816 1947.48 130.441 1933.23 130.441C1918.73 130.441 1907.23 134.816 1898.73 143.566C1890.48 152.066 1886.35 164.441 1886.35 180.691V295.441H1833.85V87.6912H1886.35V112.816C1887.62 111.173 1888.95 109.597 1890.35 108.086C1896.41 101.551 1903.7 96.2525 1912.23 92.1912C1922.98 87.1912 1934.73 84.6912 1947.48 84.6912C1963.73 84.6912 1978.23 88.1912 1990.98 95.1912C2002.37 101.225 2011.47 109.656 2018.28 120.484C2019.08 121.77 2019.86 123.088 2020.6 124.441C2021.35 123.103 2022.14 121.794 2022.97 120.514C2029.56 110.323 2038.52 102.007 2049.85 95.5662C2062.85 88.3162 2076.85 84.6912 2091.85 84.6912ZM2172.98 173.566V291.441H2128.48V180.691C2128.48 163.807 2124.19 150.288 2114.99 140.801C2105.85 131.116 2093.47 126.441 2078.35 126.441C2063.22 126.441 2050.74 131.123 2041.36 140.779L2041.36 140.78C2032.15 150.268 2027.85 163.795 2027.85 180.691V291.441H1983.35V180.691C1983.35 163.807 1979.06 150.288 1969.87 140.801C1960.72 131.116 1948.35 126.441 1933.23 126.441C1917.86 126.441 1905.25 131.109 1895.86 140.779L1895.86 140.78C1886.65 150.268 1882.35 163.795 1882.35 180.691V291.441H1837.85V91.6912H1882.35V124.55L1889.52 115.259C1895.86 107.038 1903.97 100.554 1913.93 95.8101C1924.11 91.0794 1935.27 88.6912 1947.48 88.6912C1963.13 88.6912 1976.96 92.0579 1989.05 98.6975L1989.08 98.7121L1989.1 98.7263C2001.16 105.108 2010.47 114.295 2017.09 126.366L2020.56 132.675L2024.09 126.402C2030.45 115.081 2039.66 105.966 2051.81 99.0518C2064.21 92.1419 2077.53 88.6912 2091.85 88.6912C2116.46 88.6912 2135.87 96.2549 2150.5 111.122L2150.52 111.145L2150.54 111.167C2165.34 125.727 2172.98 146.336 2172.98 173.566ZM1757.49 114.015C1756.09 115.907 1754.75 117.882 1753.49 119.941V87.6912H1700.99V295.441H1753.49V191.941C1753.49 172.691 1757.61 159.191 1765.86 151.441C1774.36 143.691 1786.86 139.816 1803.36 139.816H1817.24V84.6912C1815.89 84.6912 1814.56 84.7201 1813.24 84.778C1800.85 85.3215 1789.68 88.4176 1779.74 94.0662C1771 99.1465 1763.58 105.796 1757.49 114.015ZM1813.24 88.782C1801.5 89.3213 1791.02 92.2604 1781.73 97.5345C1771.58 103.438 1763.31 111.581 1756.9 122.033L1749.49 134.108V91.6912H1704.99V291.441H1749.49V191.941C1749.49 172.319 1753.66 157.418 1763.13 148.526L1763.15 148.505L1763.17 148.485C1772.67 139.821 1786.3 135.816 1803.36 135.816H1813.24V88.782ZM1576.6 298.816C1556.6 298.816 1538.6 294.441 1522.6 285.691C1506.6 276.691 1493.98 264.066 1484.73 247.816C1475.73 231.566 1471.23 212.816 1471.23 191.566C1471.23 170.316 1475.85 151.566 1485.1 135.316C1494.6 119.066 1507.48 106.566 1523.73 97.8162C1539.98 88.8162 1558.1 84.3162 1578.1 84.3162C1598.1 84.3162 1616.23 88.8162 1632.48 97.8162C1648.73 106.566 1661.48 119.066 1670.73 135.316C1680.23 151.566 1684.98 170.316 1684.98 191.566C1684.98 212.816 1680.1 231.566 1670.35 247.816C1660.85 264.066 1647.85 276.691 1631.35 285.691C1615.1 294.441 1596.85 298.816 1576.6 298.816ZM1576.6 294.816C1557.22 294.816 1539.89 290.583 1524.54 282.193C1509.2 273.56 1497.11 261.472 1488.22 245.857C1479.6 230.286 1475.23 212.228 1475.23 191.566C1475.23 170.923 1479.71 152.879 1488.57 137.315C1497.7 121.696 1510.04 109.729 1525.62 101.338L1525.65 101.327L1525.67 101.315C1541.28 92.6688 1558.73 88.3162 1578.1 88.3162C1597.48 88.3162 1614.93 92.6688 1630.54 101.315L1630.56 101.327L1630.58 101.338C1646.16 109.727 1658.37 121.688 1667.25 137.295L1667.26 137.315L1667.28 137.335C1676.37 152.897 1680.98 170.932 1680.98 191.566C1680.98 212.181 1676.26 230.203 1666.92 245.758L1666.91 245.778L1666.9 245.797C1657.77 261.418 1645.3 273.525 1629.44 282.176C1613.84 290.578 1596.25 294.816 1576.6 294.816ZM1576.6 253.066C1586.1 253.066 1594.98 250.816 1603.23 246.316C1611.73 241.566 1618.48 234.566 1623.48 225.316C1628.48 216.066 1630.98 204.816 1630.98 191.566C1630.98 171.816 1625.73 156.691 1615.23 146.191C1604.98 135.441 1592.35 130.066 1577.35 130.066C1562.35 130.066 1549.73 135.441 1539.48 146.191C1529.48 156.691 1524.48 171.816 1524.48 191.566C1524.48 211.316 1529.35 226.566 1539.1 237.316C1549.1 247.816 1561.6 253.066 1576.6 253.066ZM1577.35 126.066C1593.42 126.066 1607.08 131.869 1618.09 143.397C1629.54 154.867 1634.98 171.138 1634.98 191.566C1634.98 205.311 1632.38 217.251 1627 227.218C1621.67 237.081 1614.4 244.658 1605.18 249.808L1605.16 249.818L1605.14 249.828C1596.3 254.652 1586.77 257.066 1576.6 257.066C1560.55 257.066 1546.99 251.398 1536.21 240.075L1536.17 240.04L1536.14 240.003C1525.51 228.287 1520.48 211.947 1520.48 191.566C1520.48 171.168 1525.65 154.911 1536.58 143.433L1536.58 143.431C1547.6 131.88 1561.27 126.066 1577.35 126.066ZM1278.47 119.941C1279.73 117.882 1281.07 115.907 1282.47 114.015C1288.56 105.796 1295.98 99.1465 1304.72 94.0662C1314.66 88.4176 1325.83 85.3215 1338.22 84.778C1339.54 84.7201 1340.87 84.6912 1342.22 84.6912V139.816H1328.34C1311.84 139.816 1299.34 143.691 1290.84 151.441C1282.59 159.191 1278.47 172.691 1278.47 191.941V295.441H1225.97V87.6912H1278.47V119.941ZM1281.88 122.033C1288.29 111.581 1296.56 103.438 1306.71 97.5345C1316 92.2604 1326.48 89.3213 1338.22 88.782V135.816H1328.34C1311.28 135.816 1297.65 139.821 1288.15 148.485L1288.13 148.505L1288.11 148.526C1278.64 157.418 1274.47 172.319 1274.47 191.941V291.441H1229.97V91.6912H1274.47V134.108L1281.88 122.033ZM1212.4 207.316C1213.4 201.316 1213.9 194.566 1213.9 187.066C1213.9 166.816 1209.52 148.941 1200.77 133.441C1192.27 117.691 1180.15 105.566 1164.4 97.0662C1148.9 88.5662 1131.27 84.3162 1111.52 84.3162C1091.02 84.3162 1072.9 88.6912 1057.15 97.4412C1041.4 106.191 1029.15 118.691 1020.4 134.941C1011.65 151.191 1007.27 170.066 1007.27 191.566C1007.27 212.816 1011.65 231.566 1020.4 247.816C1029.4 264.066 1041.77 276.691 1057.52 285.691C1073.52 294.441 1091.52 298.816 1111.52 298.816C1136.27 298.816 1157.15 292.441 1174.15 279.691C1190 267.568 1201.07 252.402 1207.36 234.191C1207.81 232.874 1208.24 231.54 1208.65 230.191H1152.02C1143.77 246.941 1129.9 255.316 1110.4 255.316C1096.9 255.316 1085.52 251.066 1076.27 242.566C1067.86 234.837 1062.76 224.42 1060.96 211.316C1060.78 210.01 1060.64 208.676 1060.52 207.316H1212.4ZM1208.95 203.316C1209.58 198.421 1209.9 193.008 1209.9 187.066C1209.9 167.409 1205.66 150.229 1197.29 135.408L1197.27 135.374L1197.25 135.341C1189.12 120.277 1177.56 108.716 1162.5 100.586L1162.49 100.58L1162.48 100.573C1147.63 92.4332 1130.68 88.3162 1111.52 88.3162C1091.61 88.3162 1074.17 92.5612 1059.09 100.938C1044.03 109.307 1032.32 121.244 1023.92 136.838C1015.53 152.415 1011.27 170.618 1011.27 191.566C1011.27 212.246 1015.53 230.32 1023.91 245.899C1032.56 261.503 1044.4 273.577 1059.48 282.2C1074.82 290.585 1092.14 294.816 1111.52 294.816C1135.55 294.816 1155.54 288.644 1171.73 276.503C1186.59 265.14 1197.02 251.056 1203.12 234.191H1154.46C1150.17 242.068 1144.53 248.212 1137.5 252.459C1129.82 257.093 1120.73 259.316 1110.4 259.316C1095.98 259.316 1083.61 254.743 1073.57 245.511C1063.44 236.202 1057.85 223.439 1056.54 207.648L1056.18 203.316H1208.95ZM1159.31 168.066C1159.43 169.372 1159.5 170.705 1159.52 172.066H1060.9C1061.09 170.703 1061.32 169.37 1061.58 168.066C1063.98 155.978 1069.13 146.437 1077.02 139.441C1086.02 131.441 1097.02 127.441 1110.02 127.441C1123.77 127.441 1135.4 131.566 1144.9 139.816C1153.44 147.009 1158.24 156.426 1159.31 168.066ZM1147.5 136.776C1157.95 145.588 1163.25 157.462 1163.52 171.992L1163.6 176.066H1056.29L1056.94 171.5C1059.04 156.768 1064.77 144.952 1074.37 136.448C1084.16 127.745 1096.13 123.441 1110.02 123.441C1124.63 123.441 1137.21 127.847 1147.5 136.776ZM1009.75 114.691C1009.75 128.691 1006.38 141.816 999.625 154.066C993.125 166.316 982.75 176.191 968.5 183.691C954.5 191.191 936.75 194.941 915.25 194.941H871.375V295.441H818.875V33.6912H915.25C935.5 33.6912 952.75 37.1912 967 44.1912C981.25 51.1912 991.875 60.8162 998.875 73.0661C1006.12 85.3161 1009.75 99.1912 1009.75 114.691ZM867.375 190.941V291.441H822.875V37.6912H915.25C935.052 37.6912 951.665 41.1147 965.236 47.7814C978.862 54.4747 988.847 63.5796 995.402 75.0507L995.417 75.0772L995.433 75.1034C1002.29 86.6823 1005.75 99.8422 1005.75 114.691C1005.75 128.017 1002.55 140.478 996.122 152.136L996.106 152.163L996.092 152.191C990.026 163.622 980.293 172.964 966.637 180.151L966.624 180.158L966.611 180.165C953.361 187.264 936.314 190.941 915.25 190.941H867.375ZM913 152.566C927.5 152.566 938.25 149.316 945.25 142.816C952.25 136.066 955.75 126.691 955.75 114.691C955.75 89.1912 941.5 76.4411 913 76.4411H871.375V152.566H913ZM947.972 145.747L947.999 145.722L948.027 145.696C955.984 138.022 959.75 127.506 959.75 114.691C959.75 101.202 955.961 90.3872 947.73 83.0227C939.583 75.7339 927.764 72.4411 913 72.4411H867.375V156.566H913C928.001 156.566 939.929 153.216 947.972 145.747Z" fill="#363E5B"/>
<path d="M248.184 33.1072V300.441H194.564V186.69H80.047V300.441H26.427V33.1072H80.047V143.028H194.564V33.1072H248.184ZM301.343 62.9812C291.896 62.9812 283.981 60.0448 277.597 54.1722C271.469 48.0441 268.405 40.5118 268.405 31.5752C268.405 22.6385 271.469 15.2338 277.597 9.36114C283.981 3.23315 291.896 0.169147 301.343 0.169147C310.791 0.169147 318.578 3.23315 324.706 9.36114C331.09 15.2338 334.281 22.6385 334.281 31.5752C334.281 40.5118 331.09 48.0441 324.706 54.1722C318.578 60.0448 310.791 62.9812 301.343 62.9812ZM327.77 88.2592V300.441H274.15V88.2592H327.77ZM437.048 84.8122C452.879 84.8122 466.794 88.0038 478.795 94.3871C490.796 100.515 500.243 108.558 507.137 118.516V88.2592H561.14V301.973C561.14 321.634 557.182 339.124 549.267 354.444C541.352 370.019 529.479 382.275 513.648 391.212C497.817 400.404 478.667 405 456.198 405C426.069 405 401.301 397.978 381.896 383.935C362.746 369.892 351.894 350.742 349.341 326.485H402.578C405.387 336.188 411.387 343.848 420.579 349.465C430.026 355.338 441.389 358.274 454.666 358.274C470.241 358.274 482.88 353.55 492.583 344.103C502.286 334.911 507.137 320.868 507.137 301.973V269.035C500.243 278.993 490.668 287.291 478.412 293.93C466.411 300.569 452.623 303.888 437.048 303.888C419.175 303.888 402.833 299.292 388.024 290.1C373.215 280.908 361.469 268.014 352.788 251.417C344.362 234.565 340.149 215.287 340.149 193.584C340.149 172.136 344.362 153.114 352.788 136.517C361.469 119.92 373.087 107.154 387.641 98.2172C402.45 89.2805 418.919 84.8122 437.048 84.8122ZM507.137 194.35C507.137 181.328 504.584 170.221 499.477 161.029C494.37 151.582 487.476 144.432 478.795 139.581C470.114 134.474 460.794 131.921 450.836 131.921C440.878 131.921 431.686 134.347 423.26 139.198C414.834 144.049 407.94 151.199 402.578 160.646C397.471 169.838 394.918 180.817 394.918 193.584C394.918 206.351 397.471 217.585 402.578 227.288C407.94 236.735 414.834 244.012 423.26 249.119C431.941 254.226 441.133 256.779 450.836 256.779C460.794 256.779 470.114 254.353 478.795 249.502C487.476 244.395 494.37 237.246 499.477 228.054C504.584 218.607 507.137 207.372 507.137 194.35ZM706.195 85.1951C722.281 85.1951 736.58 88.7698 749.091 95.9191C761.603 102.813 771.305 113.154 778.199 126.942C785.348 140.475 788.923 156.816 788.923 175.966V300.441H735.303V183.243C735.303 166.391 731.09 153.497 722.664 144.56C714.238 135.368 702.748 130.772 688.194 130.772C673.385 130.772 661.639 135.368 652.958 144.56C644.532 153.497 640.319 166.391 640.319 183.243V300.441H586.699V17.0212H640.319V114.686C647.213 105.494 656.405 98.3448 667.895 93.2382C679.385 87.8762 692.152 85.1951 706.195 85.1951Z" fill="#363E5B"/>
</svg>
