<svg width="206" height="53" viewBox="0 0 206 53" fill="none" xmlns="http://www.w3.org/2000/svg">
<path d="M34.3072 0H5.05049H0V5.05049V26.9573H5.26489V5.26489H34.3072V0Z" fill="#FF4438"/>
<path fill-rule="evenodd" clip-rule="evenodd" d="M47.7818 52.2128V13.6028H38.3768V28.7278H23.7468V13.6028H14.3418V52.2128H23.7468V36.3178H38.3768V52.2128H47.7818ZM80.9963 26.0328C80.9963 28.2695 80.483 30.3228 79.4563 32.1928C78.4296 34.0261 76.853 35.5111 74.7263 36.6478C72.5996 37.7845 69.9596 38.3528 66.8063 38.3528H60.9763V52.2128H51.5713V13.6028H66.8063C69.8863 13.6028 72.4896 14.1344 74.6163 15.1978C76.743 16.2611 78.338 17.7278 79.4013 19.5978C80.4646 21.4678 80.9963 23.6128 80.9963 26.0328ZM66.0913 30.8728C67.888 30.8728 69.2263 30.4511 70.1063 29.6078C70.9863 28.7644 71.4263 27.5728 71.4263 26.0328C71.4263 24.4928 70.9863 23.3011 70.1063 22.4578C69.2263 21.6145 67.888 21.1928 66.0913 21.1928H60.9763V30.8728H66.0913ZM107.268 32.4128C109.504 32.8895 111.301 34.0078 112.658 35.7678C114.014 37.4911 114.693 39.4711 114.693 41.7078C114.693 44.9345 113.556 47.5011 111.283 49.4078C109.046 51.2778 105.911 52.2128 101.878 52.2128H83.8926V13.6028H101.273C105.196 13.6028 108.258 14.5011 110.458 16.2978C112.694 18.0944 113.813 20.5328 113.813 23.6128C113.813 25.8861 113.208 27.7744 111.998 29.2778C110.824 30.7811 109.248 31.8261 107.268 32.4128ZM93.2976 29.2228H99.4576C100.998 29.2228 102.171 28.8928 102.978 28.2328C103.821 27.5361 104.243 26.5278 104.243 25.2078C104.243 23.8878 103.821 22.8795 102.978 22.1828C102.171 21.4861 100.998 21.1378 99.4576 21.1378H93.2976V29.2228ZM100.228 44.6228C101.804 44.6228 103.014 44.2745 103.858 43.5778C104.738 42.8444 105.178 41.7994 105.178 40.4428C105.178 39.0861 104.719 38.0228 103.803 37.2528C102.923 36.4828 101.694 36.0978 100.118 36.0978H93.2976V44.6228H100.228Z" fill="#121B2C"/>
<path d="M146.228 15.7551C146.726 15.7551 147.169 15.8619 147.557 16.0754C147.952 16.2889 148.26 16.6052 148.482 17.0243C148.711 17.4434 148.826 17.9495 148.826 18.5425V22.3974H147.485V18.7442C147.485 18.159 147.339 17.7122 147.047 17.4038C146.754 17.0875 146.355 16.9294 145.849 16.9294C145.342 16.9294 144.939 17.0875 144.639 17.4038C144.346 17.7122 144.2 18.159 144.2 18.7442V22.3974H142.848V13.6201H144.2V16.621C144.429 16.3442 144.718 16.1307 145.066 15.9805C145.422 15.8303 145.809 15.7551 146.228 15.7551Z" fill="#121B2C"/>
<path d="M137.441 15.7551C137.947 15.7551 138.394 15.8579 138.782 16.0635C139.177 16.2612 139.485 16.5103 139.707 16.8108V15.8619H141.071V22.5042C141.071 23.1051 140.944 23.6389 140.691 24.1054C140.438 24.5799 140.071 24.9515 139.588 25.2204C139.114 25.4892 138.544 25.6237 137.88 25.6237C136.995 25.6237 136.259 25.4141 135.674 24.995C135.089 24.5838 134.757 24.0224 134.678 23.3107H136.018C136.121 23.6507 136.338 23.9236 136.67 24.1291C137.01 24.3426 137.414 24.4494 137.88 24.4494C138.426 24.4494 138.865 24.2833 139.197 23.9512C139.537 23.6191 139.707 23.1368 139.707 22.5042V21.4129C139.478 21.7213 139.165 21.9823 138.77 22.1958C138.382 22.4014 137.94 22.5042 137.441 22.5042C136.872 22.5042 136.35 22.3618 135.876 22.0772C135.409 21.7846 135.037 21.3813 134.761 20.8673C134.492 20.3454 134.357 19.7563 134.357 19.1C134.357 18.4437 134.492 17.8625 134.761 17.3564C135.037 16.8503 135.409 16.4589 135.876 16.1821C136.35 15.8975 136.872 15.7551 137.441 15.7551ZM139.707 19.1237C139.707 18.673 139.612 18.2816 139.422 17.9495C139.24 17.6173 138.999 17.3643 138.699 17.1903C138.398 17.0164 138.074 16.9294 137.726 16.9294C137.378 16.9294 137.054 17.0164 136.753 17.1903C136.453 17.3564 136.208 17.6055 136.018 17.9376C135.836 18.2618 135.745 18.6493 135.745 19.1C135.745 19.5507 135.836 19.9461 136.018 20.2861C136.208 20.6261 136.453 20.8871 136.753 21.069C137.062 21.2429 137.386 21.3299 137.726 21.3299C138.074 21.3299 138.398 21.2429 138.699 21.069C138.999 20.895 139.24 20.6419 139.422 20.3098C139.612 19.9698 139.707 19.5744 139.707 19.1237Z" fill="#121B2C"/>
<path d="M132.37 14.9959C132.125 14.9959 131.919 14.9129 131.753 14.7468C131.587 14.5808 131.504 14.3752 131.504 14.13C131.504 13.8849 131.587 13.6793 131.753 13.5132C131.919 13.3472 132.125 13.2642 132.37 13.2642C132.607 13.2642 132.809 13.3472 132.975 13.5132C133.141 13.6793 133.224 13.8849 133.224 14.13C133.224 14.3752 133.141 14.5808 132.975 14.7468C132.809 14.9129 132.607 14.9959 132.37 14.9959ZM133.034 15.8618V22.3973H131.682V15.8618H133.034Z" fill="#121B2C"/>
<path d="M129.901 14.1538V22.3974H128.549V18.7915H124.671V22.3974H123.318V14.1538H124.671V17.6885H128.549V14.1538H129.901Z" fill="#121B2C"/>
<path d="M199.468 35.7425C199.468 35.9876 199.452 36.209 199.421 36.4067H194.427C194.467 36.9286 194.66 37.3477 195.008 37.664C195.356 37.9803 195.783 38.1384 196.289 38.1384C197.017 38.1384 197.531 37.834 197.831 37.2251H199.29C199.092 37.8261 198.733 38.3203 198.211 38.7078C197.697 39.0873 197.056 39.2771 196.289 39.2771C195.664 39.2771 195.103 39.1387 194.605 38.862C194.115 38.5773 193.727 38.1819 193.442 37.6758C193.166 37.1619 193.027 36.5688 193.027 35.8967C193.027 35.2245 193.162 34.6354 193.431 34.1293C193.707 33.6154 194.091 33.22 194.581 32.9432C195.079 32.6665 195.649 32.5281 196.289 32.5281C196.906 32.5281 197.456 32.6625 197.938 32.9314C198.42 33.2002 198.796 33.5798 199.065 34.07C199.334 34.5524 199.468 35.1099 199.468 35.7425ZM198.056 35.3155C198.049 34.8173 197.871 34.418 197.523 34.1175C197.175 33.817 196.744 33.6668 196.23 33.6668C195.763 33.6668 195.364 33.817 195.032 34.1175C194.7 34.4101 194.502 34.8094 194.439 35.3155H198.056Z" fill="#121B2C"/>
<path d="M185.916 35.8967C185.916 35.2245 186.05 34.6354 186.319 34.1293C186.596 33.6154 186.976 33.22 187.458 32.9432C187.94 32.6665 188.494 32.5281 189.119 32.5281C189.909 32.5281 190.562 32.7179 191.076 33.0974C191.598 33.4691 191.949 34.0028 192.131 34.6987H190.672C190.554 34.3745 190.364 34.1214 190.103 33.9396C189.842 33.7577 189.514 33.6668 189.119 33.6668C188.565 33.6668 188.122 33.8644 187.79 34.2598C187.466 34.6473 187.304 35.1929 187.304 35.8967C187.304 36.6004 187.466 37.15 187.79 37.5454C188.122 37.9407 188.565 38.1384 189.119 38.1384C189.901 38.1384 190.419 37.7945 190.672 37.1065H192.131C191.942 37.7707 191.586 38.3005 191.064 38.6959C190.542 39.0834 189.893 39.2771 189.119 39.2771C188.494 39.2771 187.94 39.1387 187.458 38.862C186.976 38.5773 186.596 38.1819 186.319 37.6758C186.05 37.1619 185.916 36.5688 185.916 35.8967Z" fill="#121B2C"/>
<path d="M181.96 32.5281C182.474 32.5281 182.932 32.6348 183.335 32.8483C183.747 33.0618 184.067 33.3781 184.296 33.7972C184.526 34.2163 184.64 34.7224 184.64 35.3155V39.1704H183.3V35.5171C183.3 34.9319 183.154 34.4852 182.861 34.1768C182.568 33.8605 182.169 33.7023 181.663 33.7023C181.157 33.7023 180.754 33.8605 180.453 34.1768C180.161 34.4852 180.014 34.9319 180.014 35.5171V39.1704H178.662V32.6348H180.014V33.3821C180.236 33.1132 180.516 32.9037 180.856 32.7534C181.204 32.6032 181.572 32.5281 181.96 32.5281Z" fill="#121B2C"/>
<path d="M170.174 35.8729C170.174 35.2166 170.308 34.6354 170.577 34.1293C170.854 33.6233 171.226 33.2318 171.692 32.9551C172.167 32.6704 172.688 32.5281 173.258 32.5281C173.772 32.5281 174.219 32.6309 174.598 32.8365C174.986 33.0342 175.294 33.2832 175.523 33.5837V32.6348H176.887V39.1704H175.523V38.1977C175.294 38.5061 174.982 38.7631 174.586 38.9687C174.191 39.1743 173.74 39.2771 173.234 39.2771C172.673 39.2771 172.159 39.1348 171.692 38.8501C171.226 38.5575 170.854 38.1542 170.577 37.6403C170.308 37.1184 170.174 36.5293 170.174 35.8729ZM175.523 35.8967C175.523 35.4459 175.428 35.0545 175.239 34.7224C175.057 34.3903 174.816 34.1372 174.515 33.9633C174.215 33.7893 173.89 33.7023 173.542 33.7023C173.194 33.7023 172.87 33.7893 172.57 33.9633C172.269 34.1293 172.024 34.3784 171.834 34.7105C171.653 35.0347 171.562 35.4222 171.562 35.8729C171.562 36.3237 171.653 36.719 171.834 37.0591C172.024 37.3991 172.269 37.66 172.57 37.8419C172.878 38.0159 173.202 38.1028 173.542 38.1028C173.89 38.1028 174.215 38.0159 174.515 37.8419C174.816 37.6679 175.057 37.4149 175.239 37.0828C175.428 36.7428 175.523 36.3474 175.523 35.8967Z" fill="#121B2C"/>
<path d="M166.21 32.5281C166.724 32.5281 167.183 32.6348 167.586 32.8483C167.997 33.0618 168.318 33.3781 168.547 33.7972C168.784 34.2163 168.903 34.7224 168.903 35.3155V39.1704H167.562V35.5171C167.562 34.9319 167.416 34.4852 167.124 34.1768C166.831 33.8605 166.432 33.7023 165.926 33.7023C165.42 33.7023 165.016 33.8605 164.716 34.1768C164.423 34.4852 164.277 34.9319 164.277 35.5171V39.1704H162.937V35.5171C162.937 34.9319 162.79 34.4852 162.498 34.1768C162.205 33.8605 161.806 33.7023 161.3 33.7023C160.794 33.7023 160.39 33.8605 160.09 34.1768C159.797 34.4852 159.651 34.9319 159.651 35.5171V39.1704H158.299V32.6348H159.651V33.3821C159.872 33.1132 160.153 32.9037 160.493 32.7534C160.833 32.6032 161.197 32.5281 161.584 32.5281C162.106 32.5281 162.573 32.6388 162.984 32.8602C163.395 33.0816 163.711 33.4019 163.933 33.8209C164.131 33.4256 164.439 33.1132 164.858 32.8839C165.277 32.6467 165.728 32.5281 166.21 32.5281Z" fill="#121B2C"/>
<path d="M155.1 33.5837C155.298 33.2516 155.559 32.9946 155.883 32.8127C156.215 32.623 156.607 32.5281 157.057 32.5281V33.9277H156.713C156.184 33.9277 155.78 34.0621 155.504 34.331C155.235 34.5998 155.1 35.0664 155.1 35.7306V39.1704H153.748V32.6348H155.1V33.5837Z" fill="#121B2C"/>
<path d="M149.018 39.2771C148.401 39.2771 147.844 39.1387 147.345 38.862C146.847 38.5773 146.456 38.1819 146.171 37.6758C145.886 37.1619 145.744 36.5688 145.744 35.8967C145.744 35.2324 145.89 34.6433 146.183 34.1293C146.476 33.6154 146.875 33.22 147.381 32.9432C147.887 32.6665 148.452 32.5281 149.077 32.5281C149.702 32.5281 150.267 32.6665 150.773 32.9432C151.279 33.22 151.679 33.6154 151.971 34.1293C152.264 34.6433 152.41 35.2324 152.41 35.8967C152.41 36.5609 152.26 37.15 151.959 37.664C151.659 38.178 151.248 38.5773 150.726 38.862C150.212 39.1387 149.643 39.2771 149.018 39.2771ZM149.018 38.1028C149.366 38.1028 149.69 38.0198 149.99 37.8538C150.299 37.6877 150.548 37.4386 150.738 37.1065C150.927 36.7744 151.022 36.3711 151.022 35.8967C151.022 35.4222 150.931 35.0229 150.75 34.6987C150.568 34.3666 150.327 34.1175 150.026 33.9514C149.726 33.7854 149.401 33.7023 149.053 33.7023C148.705 33.7023 148.381 33.7854 148.081 33.9514C147.788 34.1175 147.555 34.3666 147.381 34.6987C147.207 35.0229 147.12 35.4222 147.12 35.8967C147.12 36.6004 147.298 37.146 147.654 37.5335C148.018 37.9131 148.472 38.1028 149.018 38.1028Z" fill="#121B2C"/>
<path d="M144.985 33.7378H143.776V39.1703H142.412V33.7378H141.641V32.6348H142.412V32.1722C142.412 31.421 142.609 30.8753 143.005 30.5353C143.408 30.1874 144.037 30.0134 144.891 30.0134V31.1402C144.479 31.1402 144.191 31.2193 144.025 31.3775C143.859 31.5277 143.776 31.7926 143.776 32.1722V32.6348H144.985V33.7378Z" fill="#121B2C"/>
<path d="M139.046 33.5837C139.243 33.2516 139.504 32.9946 139.828 32.8127C140.16 32.623 140.552 32.5281 141.003 32.5281V33.9277H140.659C140.129 33.9277 139.726 34.0621 139.449 34.331C139.18 34.5998 139.046 35.0664 139.046 35.7306V39.1704H137.693V32.6348H139.046V33.5837Z" fill="#121B2C"/>
<path d="M136.363 35.7425C136.363 35.9876 136.347 36.209 136.315 36.4067H131.321C131.361 36.9286 131.555 37.3477 131.903 37.664C132.251 37.9803 132.678 38.1384 133.184 38.1384C133.911 38.1384 134.425 37.834 134.726 37.2251H136.185C135.987 37.8261 135.627 38.3203 135.105 38.7078C134.591 39.0873 133.951 39.2771 133.184 39.2771C132.559 39.2771 131.998 39.1387 131.499 38.862C131.009 38.5773 130.622 38.1819 130.337 37.6758C130.06 37.1619 129.922 36.5688 129.922 35.8967C129.922 35.2245 130.056 34.6354 130.325 34.1293C130.602 33.6154 130.985 33.22 131.476 32.9432C131.974 32.6665 132.543 32.5281 133.184 32.5281C133.8 32.5281 134.35 32.6625 134.832 32.9314C135.315 33.2002 135.69 33.5798 135.959 34.07C136.228 34.5524 136.363 35.1099 136.363 35.7425ZM134.951 35.3155C134.943 34.8173 134.765 34.418 134.417 34.1175C134.069 33.817 133.638 33.6668 133.124 33.6668C132.658 33.6668 132.259 33.817 131.926 34.1175C131.594 34.4101 131.397 34.8094 131.333 35.3155H134.951Z" fill="#121B2C"/>
<path d="M129.083 33.382C129.083 33.8011 128.984 34.1965 128.786 34.5682C128.589 34.9398 128.272 35.2442 127.837 35.4815C127.403 35.7108 126.845 35.8254 126.165 35.8254H124.671V39.1703H123.318V30.9268H126.165C126.798 30.9268 127.331 31.0375 127.766 31.2589C128.209 31.4724 128.537 31.765 128.751 32.1366C128.972 32.5083 129.083 32.9234 129.083 33.382ZM126.165 34.7223C126.679 34.7223 127.063 34.6077 127.316 34.3784C127.569 34.1411 127.695 33.809 127.695 33.382C127.695 32.4806 127.185 32.0299 126.165 32.0299H124.671V34.7223H126.165Z" fill="#121B2C"/>
<path d="M161.355 52.5513C160.841 52.5513 160.378 52.4603 159.967 52.2785C159.564 52.0887 159.244 51.8357 159.007 51.5194C158.769 51.1951 158.643 50.8354 158.627 50.44H160.027C160.05 50.7167 160.181 50.95 160.418 51.1398C160.663 51.3217 160.968 51.4126 161.331 51.4126C161.711 51.4126 162.003 51.3414 162.209 51.1991C162.423 51.0489 162.529 50.8591 162.529 50.6298C162.529 50.3846 162.411 50.2028 162.173 50.0841C161.944 49.9655 161.576 49.8351 161.07 49.6927C160.58 49.5583 160.181 49.4278 159.872 49.3013C159.564 49.1748 159.295 48.9811 159.066 48.7201C158.844 48.4592 158.734 48.1152 158.734 47.6882C158.734 47.3403 158.837 47.024 159.042 46.7393C159.248 46.4467 159.54 46.2174 159.92 46.0513C160.307 45.8853 160.75 45.8022 161.248 45.8022C161.992 45.8022 162.589 45.992 163.039 46.3716C163.498 46.7432 163.743 47.2533 163.775 47.9017H162.423C162.399 47.6091 162.28 47.3758 162.067 47.2019C161.853 47.0279 161.565 46.9409 161.201 46.9409C160.845 46.9409 160.572 47.0081 160.382 47.1426C160.193 47.277 160.098 47.4549 160.098 47.6763C160.098 47.8503 160.161 47.9966 160.288 48.1152C160.414 48.2338 160.568 48.3287 160.75 48.3999C160.932 48.4631 161.201 48.5461 161.557 48.6489C162.031 48.7755 162.419 48.9059 162.719 49.0404C163.027 49.1669 163.292 49.3567 163.514 49.6097C163.735 49.8627 163.85 50.1988 163.858 50.6179C163.858 50.9896 163.755 51.3217 163.549 51.6142C163.344 51.9068 163.051 52.1361 162.672 52.3022C162.3 52.4682 161.861 52.5513 161.355 52.5513Z" fill="#121B2C"/>
<path d="M150.494 49.1471C150.494 48.4908 150.629 47.9096 150.897 47.4035C151.174 46.8974 151.546 46.506 152.012 46.2293C152.487 45.9446 153.013 45.8023 153.59 45.8023C154.017 45.8023 154.436 45.8971 154.847 46.0869C155.266 46.2688 155.598 46.5139 155.844 46.8223V43.6672H157.208V52.4445H155.844V51.4601C155.622 51.7764 155.314 52.0373 154.918 52.2429C154.531 52.4485 154.084 52.5513 153.578 52.5513C153.009 52.5513 152.487 52.409 152.012 52.1243C151.546 51.8317 151.174 51.4284 150.897 50.9144C150.629 50.3925 150.494 49.8034 150.494 49.1471ZM155.844 49.1708C155.844 48.7201 155.749 48.3287 155.559 47.9966C155.377 47.6645 155.136 47.4114 154.835 47.2375C154.535 47.0635 154.211 46.9765 153.863 46.9765C153.515 46.9765 153.191 47.0635 152.89 47.2375C152.59 47.4035 152.344 47.6526 152.155 47.9847C151.973 48.3089 151.882 48.6964 151.882 49.1471C151.882 49.5978 151.973 49.9932 152.155 50.3332C152.344 50.6733 152.59 50.9342 152.89 51.1161C153.198 51.29 153.523 51.377 153.863 51.377C154.211 51.377 154.535 51.29 154.835 51.1161C155.136 50.9421 155.377 50.6891 155.559 50.357C155.749 50.0169 155.844 49.6216 155.844 49.1708Z" fill="#121B2C"/>
<path d="M147.745 46.8579C147.942 46.5258 148.203 46.2688 148.528 46.0869C148.86 45.8971 149.251 45.8022 149.702 45.8022V47.2019H149.358C148.828 47.2019 148.425 47.3363 148.148 47.6052C147.879 47.874 147.745 48.3405 147.745 49.0048V52.4445H146.393V45.909H147.745V46.8579Z" fill="#121B2C"/>
<path d="M137.902 49.1471C137.902 48.4908 138.037 47.9096 138.306 47.4035C138.582 46.8974 138.954 46.506 139.421 46.2292C139.895 45.9446 140.417 45.8022 140.986 45.8022C141.5 45.8022 141.947 45.905 142.327 46.1106C142.714 46.3083 143.022 46.5574 143.252 46.8579V45.909H144.616V52.4445H143.252V51.4719C143.022 51.7803 142.71 52.0373 142.315 52.2429C141.919 52.4485 141.469 52.5513 140.963 52.5513C140.401 52.5513 139.887 52.4089 139.421 52.1243C138.954 51.8317 138.582 51.4284 138.306 50.9144C138.037 50.3925 137.902 49.8034 137.902 49.1471ZM143.252 49.1708C143.252 48.7201 143.157 48.3287 142.967 47.9966C142.785 47.6645 142.544 47.4114 142.244 47.2375C141.943 47.0635 141.619 46.9765 141.271 46.9765C140.923 46.9765 140.599 47.0635 140.298 47.2375C139.998 47.4035 139.753 47.6526 139.563 47.9847C139.381 48.3089 139.29 48.6964 139.29 49.1471C139.29 49.5978 139.381 49.9932 139.563 50.3332C139.753 50.6733 139.998 50.9342 140.298 51.1161C140.607 51.29 140.931 51.377 141.271 51.377C141.619 51.377 141.943 51.29 142.244 51.1161C142.544 50.9421 142.785 50.6891 142.967 50.357C143.157 50.0169 143.252 49.6216 143.252 49.1708Z" fill="#121B2C"/>
<path d="M133.625 52.5513C133.008 52.5513 132.451 52.4129 131.953 52.1361C131.455 51.8515 131.063 51.4561 130.779 50.95C130.494 50.436 130.352 49.843 130.352 49.1708C130.352 48.5066 130.498 47.9175 130.79 47.4035C131.083 46.8895 131.482 46.4942 131.988 46.2174C132.494 45.9406 133.06 45.8022 133.685 45.8022C134.309 45.8022 134.875 45.9406 135.381 46.2174C135.887 46.4942 136.286 46.8895 136.579 47.4035C136.871 47.9175 137.018 48.5066 137.018 49.1708C137.018 49.8351 136.867 50.4242 136.567 50.9382C136.266 51.4521 135.855 51.8515 135.333 52.1361C134.819 52.4129 134.25 52.5513 133.625 52.5513ZM133.625 51.377C133.973 51.377 134.297 51.294 134.598 51.1279C134.906 50.9619 135.155 50.7128 135.345 50.3807C135.535 50.0486 135.63 49.6453 135.63 49.1708C135.63 48.6964 135.539 48.2971 135.357 47.9728C135.175 47.6407 134.934 47.3916 134.633 47.2256C134.333 47.0595 134.009 46.9765 133.661 46.9765C133.313 46.9765 132.989 47.0595 132.688 47.2256C132.396 47.3916 132.162 47.6407 131.988 47.9728C131.814 48.2971 131.727 48.6964 131.727 49.1708C131.727 49.8746 131.905 50.4202 132.261 50.8077C132.625 51.1872 133.08 51.377 133.625 51.377Z" fill="#121B2C"/>
<path d="M127.731 48.21C128.174 48.2891 128.549 48.5224 128.858 48.9098C129.166 49.2973 129.32 49.7362 129.32 50.2264C129.32 50.6455 129.209 51.0251 128.988 51.3651C128.775 51.6972 128.462 51.9621 128.051 52.1598C127.64 52.3496 127.161 52.4445 126.616 52.4445H123.318V44.2009H126.462C127.023 44.2009 127.505 44.2958 127.909 44.4856C128.312 44.6754 128.616 44.9324 128.822 45.2566C129.028 45.5729 129.13 45.9287 129.13 46.3241C129.13 46.7985 129.004 47.1939 128.751 47.5102C128.498 47.8265 128.158 48.0598 127.731 48.21ZM124.671 47.6644H126.343C126.786 47.6644 127.13 47.5656 127.375 47.3679C127.628 47.1623 127.754 46.8697 127.754 46.4901C127.754 46.1185 127.628 45.8299 127.375 45.6243C127.13 45.4108 126.786 45.304 126.343 45.304H124.671V47.6644ZM126.497 51.3414C126.956 51.3414 127.316 51.2307 127.577 51.0093C127.837 50.7879 127.968 50.4795 127.968 50.0841C127.968 49.6808 127.83 49.3606 127.553 49.1233C127.276 48.8861 126.908 48.7675 126.45 48.7675H124.671V51.3414H126.497Z" fill="#121B2C"/>
</svg>
