<svg width="20" height="21" viewBox="0 0 20 21" fill="none" xmlns="http://www.w3.org/2000/svg">
<path d="M0.852783 3.23225C0.852783 1.96409 1.88182 0.935059 3.14998 0.935059C4.41734 0.935059 5.44637 1.96409 5.44717 3.23225C5.44717 4.50041 4.41814 5.55096 3.14998 5.55096C1.88182 5.55096 0.852783 4.50041 0.852783 3.23225Z" fill="white"/>
<path d="M19.978 20.065V20.0642H19.9828V13.0483C19.9828 9.61608 19.2439 6.97216 15.2313 6.97216C13.3024 6.97216 12.0079 8.03069 11.4795 9.03421H11.4237V7.29259H7.61919V20.0642H11.5807V13.7402C11.5807 12.0751 11.8963 10.465 13.9584 10.465C15.9902 10.465 16.0204 12.3652 16.0204 13.847V20.065H19.978Z" fill="white"/>
<path d="M1.16854 7.29335H5.13483V20.065H1.16854V7.29335Z" fill="white"/>
</svg>
