<svg width="23" height="23" viewBox="0 0 23 23" fill="none" xmlns="http://www.w3.org/2000/svg">
<path d="M17.1654 4.18178C16.8998 4.18178 16.6402 4.26053 16.4194 4.40808C16.1985 4.55563 16.0264 4.76534 15.9248 5.01071C15.8232 5.25607 15.7966 5.52606 15.8484 5.78654C15.9002 6.04701 16.0281 6.28628 16.2159 6.47407C16.4037 6.66186 16.6429 6.78975 16.9034 6.84156C17.1639 6.89337 17.4339 6.86678 17.6792 6.76515C17.9246 6.66352 18.1343 6.49141 18.2819 6.27059C18.4294 6.04977 18.5082 5.79015 18.5082 5.52457C18.5082 5.16844 18.3667 4.8269 18.1149 4.57507C17.863 4.32325 17.5215 4.18178 17.1654 4.18178ZM22.3127 6.88974C22.291 5.96131 22.1171 5.04274 21.798 4.17059C21.5135 3.42437 21.0706 2.74866 20.5 2.18997C19.9459 1.6164 19.2686 1.17636 18.5194 0.903125C17.6495 0.574321 16.7299 0.396456 15.8002 0.377198C14.6141 0.310059 14.2336 0.310059 11.1899 0.310059C8.14628 0.310059 7.76582 0.310059 6.57969 0.377198C5.64997 0.396456 4.73037 0.574321 3.86053 0.903125C3.11268 1.17912 2.43598 1.61879 1.87991 2.18997C1.30634 2.74407 0.866299 3.42135 0.593067 4.17059C0.264263 5.04043 0.0863975 5.96003 0.0671396 6.88974C-6.25287e-08 8.07588 0 8.45634 0 11.5C0 14.5437 -6.25287e-08 14.9241 0.0671396 16.1103C0.0863975 17.04 0.264263 17.9596 0.593067 18.8294C0.866299 19.5786 1.30634 20.2559 1.87991 20.81C2.43598 21.3812 3.11268 21.8209 3.86053 22.0969C4.73037 22.4257 5.64997 22.6035 6.57969 22.6228C7.76582 22.6899 8.14628 22.6899 11.1899 22.6899C14.2336 22.6899 14.6141 22.6899 15.8002 22.6228C16.7299 22.6035 17.6495 22.4257 18.5194 22.0969C19.2686 21.8236 19.9459 21.3836 20.5 20.81C21.0732 20.2534 21.5164 19.5771 21.798 18.8294C22.1171 17.9573 22.291 17.0387 22.3127 16.1103C22.3127 14.9241 22.3799 14.5437 22.3799 11.5C22.3799 8.45634 22.3799 8.07588 22.3127 6.88974ZM20.2986 15.976C20.2904 16.6863 20.1618 17.3901 19.9181 18.0573C19.7394 18.5443 19.4525 18.9843 19.0788 19.3441C18.7159 19.714 18.2768 20.0004 17.792 20.1834C17.1248 20.4271 16.421 20.5557 15.7107 20.5639C14.5917 20.6198 14.1777 20.631 11.2347 20.631C8.29175 20.631 7.87772 20.631 6.75872 20.5639C6.02118 20.5777 5.28679 20.4641 4.58788 20.2282C4.12437 20.0358 3.70539 19.7501 3.35698 19.3889C2.98558 19.0294 2.7022 18.589 2.52893 18.1021C2.25573 17.4252 2.10421 16.7055 2.08133 15.976C2.08133 14.857 2.01419 14.443 2.01419 11.5C2.01419 8.55704 2.01419 8.14302 2.08133 7.02402C2.08634 6.29786 2.21891 5.57822 2.47298 4.89793C2.66997 4.42562 2.97234 4.00459 3.35698 3.66704C3.69695 3.2823 4.1171 2.97673 4.58788 2.77185C5.26996 2.52572 5.98885 2.39707 6.71396 2.39139C7.83296 2.39139 8.24699 2.32425 11.1899 2.32425C14.1329 2.32425 14.5469 2.32425 15.6659 2.39139C16.3762 2.39953 17.08 2.52818 17.7472 2.77185C18.2558 2.96057 18.7121 3.26739 19.0788 3.66704C19.4455 4.01077 19.7321 4.43101 19.9181 4.89793C20.1668 5.57933 20.2955 6.29867 20.2986 7.02402C20.3545 8.14302 20.3657 8.55704 20.3657 11.5C20.3657 14.443 20.3545 14.857 20.2986 15.976ZM11.1899 5.75956C10.0551 5.76177 8.94632 6.10032 8.00378 6.73243C7.06124 7.36454 6.32722 8.26185 5.89445 9.31097C5.46169 10.3601 5.3496 11.5139 5.57236 12.6267C5.79512 13.7395 6.34272 14.7613 7.14598 15.563C7.94924 16.3647 8.97211 16.9104 10.0853 17.1309C11.1986 17.3515 12.3522 17.2372 13.4005 16.8024C14.4488 16.3676 15.3446 15.6318 15.9749 14.6881C16.6052 13.7443 16.9416 12.6349 16.9416 11.5C16.9431 10.7448 16.7952 9.99675 16.5065 9.29889C16.2179 8.60103 15.7941 7.96712 15.2596 7.43363C14.725 6.90014 14.0903 6.47759 13.3919 6.19029C12.6935 5.90299 11.9451 5.75661 11.1899 5.75956ZM11.1899 15.2262C10.453 15.2262 9.73253 15.0077 9.11975 14.5983C8.50697 14.1888 8.02937 13.6069 7.74733 12.926C7.4653 12.2451 7.39151 11.4959 7.53529 10.773C7.67907 10.0502 8.03396 9.38627 8.55508 8.86514C9.07621 8.34402 9.74016 7.98913 10.463 7.84535C11.1858 7.70157 11.935 7.77536 12.6159 8.05739C13.2968 8.33942 13.8788 8.81703 14.2882 9.42981C14.6977 10.0426 14.9162 10.763 14.9162 11.5C14.9162 11.9893 14.8198 12.4739 14.6325 12.926C14.4453 13.3781 14.1708 13.7888 13.8248 14.1349C13.4788 14.4809 13.068 14.7553 12.6159 14.9426C12.1638 15.1299 11.6793 15.2262 11.1899 15.2262Z" fill="white"/>
</svg>
