<svg width="30" height="21" viewBox="0 0 30 21" fill="none" xmlns="http://www.w3.org/2000/svg">
<path d="M29.846 7.44388C29.9122 5.52755 29.4931 3.62557 28.6277 1.91452C28.0405 1.21244 27.2255 0.738646 26.3249 0.575698C22.5996 0.237678 18.8589 0.0991345 15.1188 0.160661C11.3924 0.0963419 7.66517 0.230415 3.95298 0.56231C3.21906 0.695813 2.53987 1.04006 1.99829 1.55304C0.793336 2.66427 0.659452 4.5654 0.525569 6.17199C0.331321 9.0606 0.331321 11.959 0.525569 14.8476C0.564302 15.7518 0.69894 16.6494 0.927219 17.5252C1.08865 18.2014 1.41525 18.827 1.87779 19.3461C2.42305 19.8862 3.11806 20.25 3.87265 20.3903C6.75906 20.7466 9.66741 20.8943 12.5751 20.8321C17.261 20.8991 21.3712 20.8321 26.2312 20.4573C27.0043 20.3256 27.7189 19.9613 28.2796 19.413C28.6544 19.038 28.9344 18.579 29.0963 18.0742C29.5751 16.605 29.8102 15.0673 29.7924 13.5222C29.846 12.7724 29.846 8.24718 29.846 7.44388ZM12.0931 14.3254V6.03811L20.019 10.2019C17.7965 11.4336 14.8645 12.826 12.0931 14.3254Z" fill="white"/>
</svg>
